<?xml version="1.0" encoding="UTF-8"?>
<svg id="Layer_1" data-name="Layer 1" xmlns="http://www.w3.org/2000/svg" viewBox="0 0 1735.83 1510.25">
  <defs>
    <style>
      .cls-1 {
        fill: #231f20;
      }
    </style>
  </defs>
  <g>
    <path class="cls-1" d="M171.98,926.64l76.39,182.45,76.39-182.45h90.28l-131.95,303.04h-69.45l-131.95-303.04h90.28Z"/>
    <path class="cls-1" d="M405.57,1078.16c0-22.73,3.89-43.77,11.68-63.14,7.78-19.35,18.62-36.08,32.51-50.19,13.89-14.1,30.4-25.04,49.56-32.83,19.15-7.78,40.09-11.68,62.82-11.68s43.66,3.9,62.82,11.68c19.15,7.79,35.67,18.73,49.56,32.83,13.89,14.11,24.72,30.84,32.51,50.19,7.78,19.36,11.68,40.41,11.68,63.14,0,6.31-.63,13.68-1.9,22.1h-226.02c4.63,16,13.47,28.94,26.52,38.83,13.04,9.89,28.41,14.84,46.09,14.84,22.3,0,40.41-7.36,54.29-22.1h92.81c-5.05,16-12.21,30.41-21.47,43.25-9.26,12.84-20.31,23.79-33.14,32.83-12.84,9.05-27.26,16-43.25,20.83-16,4.83-32.83,7.26-50.51,7.26-22.73,0-43.67-3.9-62.82-11.68-19.16-7.78-35.67-18.62-49.56-32.51-13.89-13.89-24.73-30.51-32.51-49.87-7.8-19.36-11.68-40.61-11.68-63.76ZM632.85,1045.96c-5.9-13.46-14.94-24.09-27.15-31.88-12.21-7.78-26.31-11.68-42.3-11.68s-29.99,3.9-41.98,11.68c-11.99,7.79-20.94,18.42-26.83,31.88h138.26Z"/>
    <path class="cls-1" d="M898.65,1002.4c-18.1,0-32.62,5.37-43.57,16.1-10.95,10.73-16.41,24.94-16.41,42.62v168.57h-82.07v-169.2c0-20.2,3.57-38.92,10.73-56.19,7.15-17.25,17.04-32.09,29.67-44.51,12.63-12.41,27.56-22.1,44.82-29.04,17.25-6.94,36.2-10.42,56.82-10.42s39.56,3.47,56.82,10.42c17.25,6.94,32.2,16.63,44.82,29.04,12.63,12.42,22.41,27.26,29.36,44.51,6.94,17.26,10.42,35.99,10.42,56.19v169.2h-82.07v-168.57c0-17.68-5.37-31.88-16.1-42.62-10.73-10.73-25.15-16.1-43.25-16.1Z"/>
    <path class="cls-1" d="M1232.62,1153.92c18.09,0,32.51-5.37,43.25-16.1,10.73-10.73,16.1-24.94,16.1-42.62v-168.57h82.07v169.2c0,20.2-3.47,38.93-10.42,56.19-6.94,17.26-16.73,32.1-29.36,44.51-12.63,12.42-27.57,22.1-44.82,29.04-17.26,6.94-36.2,10.42-56.82,10.42s-39.57-3.47-56.82-10.42c-17.26-6.94-32.2-16.62-44.82-29.04-12.63-12.41-22.52-27.24-29.67-44.51-7.16-17.25-10.73-35.99-10.73-56.19v-169.2h82.07v168.57c0,17.68,5.46,31.88,16.41,42.62,10.94,10.73,25.46,16.1,43.57,16.1Z"/>
    <path class="cls-1" d="M1677.7,1037.12h-82.07c0-12.2-4.95-22.1-14.84-29.67-9.89-7.58-23.04-11.36-39.46-11.36-13.05,0-23.68,2.53-31.88,7.58-8.21,5.05-12.31,11.58-12.31,19.57,0,8.42,4.94,16,14.84,22.73,9.88,6.74,22.2,13.79,36.94,21.15,14.73,7.37,30.82,15.47,48.3,24.31,17.46,8.84,33.56,19.47,48.29,31.88,14.73,12.42,27.04,27.26,36.94,44.51,9.88,17.26,14.84,37.88,14.84,61.87h-82.07c0-15.15-4.95-27.88-14.84-38.2-9.89-10.31-22.21-19.78-36.93-28.41-14.74-8.62-30.84-16.94-48.3-24.94-17.47-7.99-33.57-17.14-48.3-27.46-14.74-10.31-27.05-22.41-36.93-36.3-9.9-13.89-14.84-30.93-14.84-51.14,0-14.73,3.26-28.41,9.79-41.04,6.52-12.63,15.57-23.57,27.15-32.83,11.57-9.25,25.25-16.42,41.04-21.47,15.78-5.05,33.14-7.58,52.08-7.58s37.77,2.84,53.98,8.52c16.2,5.68,30.09,13.68,41.67,23.99,11.57,10.32,20.61,22.63,27.15,36.93,6.52,14.31,9.78,30.1,9.78,47.35ZM1461.79,1141.3c13.46,0,24.83,4.64,34.09,13.89,9.25,9.26,13.89,20.63,13.89,34.09s-4.64,24.62-13.89,33.46c-9.26,8.84-20.63,13.26-34.09,13.26s-24.62-4.42-33.46-13.26c-8.84-8.84-13.26-19.99-13.26-33.46s4.42-24.83,13.26-34.09c8.84-9.25,19.99-13.89,33.46-13.89Z"/>
  </g>
  <g>
    <path class="cls-1" d="M567.6,1327.21v84.67h33.17v16.01h-53.37v-100.68h20.19Z"/>
    <path class="cls-1" d="M636.11,1377.26c0-30.14,23.22-51.49,51.64-51.49s51.49,21.35,51.49,51.49-22.94,51.64-51.49,51.64-51.64-21.35-51.64-51.64ZM718.46,1377.26c0-20.48-12.55-33.32-30.72-33.32s-30.87,12.84-30.87,33.32,12.55,33.61,30.87,33.61,30.72-13.12,30.72-33.61Z"/>
    <path class="cls-1" d="M781.35,1327.21h20.19v62.31c0,13.85,7.5,21.06,20.34,21.06s20.48-7.21,20.48-21.06v-62.31h20.34v62.16c0,26.54-19.04,39.52-41.11,39.52s-40.24-12.98-40.24-39.52v-62.16Z"/>
    <path class="cls-1" d="M995.68,1327.06v100.82h-20.19l-45.72-69.09v69.09h-20.19v-100.82h20.19l45.72,69.23v-69.23h20.19Z"/>
    <path class="cls-1" d="M1113.08,1357.5c-4.61-8.51-12.98-12.98-23.65-12.98-18.03,0-30.58,12.84-30.58,32.89s12.69,33.17,31.44,33.17c15.58,0,25.53-8.94,28.56-23.22h-34.62v-15.43h54.52v17.6c-4.04,20.48-22.36,39.23-49.19,39.23-29.28,0-51.49-21.2-51.49-51.35s22.21-51.49,51.35-51.49c22.5,0,40.39,11.39,46.88,31.59h-23.22Z"/>
    <path class="cls-1" d="M1239.57,1343.51h-38.22v25.24h33.9v16.01h-33.9v26.68h38.22v16.44h-58.42v-100.82h58.42v16.44Z"/>
  </g>
  <g>
    <g id="_Radial_Repeat_" data-name="&amp;lt;Radial Repeat&amp;gt;">
      <g>
        <path class="cls-1" d="M962.65,517.86c-39.33,0-78.13,14.5-108.27,42.14l-96.58,92.02-7.03,6.7-116.35,110.85c27.27,20.69,57.12,38.14,89,51.77l187.14-179.27,99.06-93.52,17.93-16.93c-20.85-9.26-42.96-13.76-64.9-13.76Z"/>
        <path class="cls-1" d="M1116.39,571.02l-88.84-39.4-.15,7.39-.95,293.69c35.34-12.06,68.57-28.67,99-49.14l.14-202.73v-5.73l-9.2-4.09Z"/>
      </g>
    </g>
    <g id="_Radial_Repeat_-2" data-name="&amp;lt;Radial Repeat&amp;gt;">
      <g>
        <path class="cls-1" d="M769.94,387.51l-89.52-95.47-9.2-9.81-109.64-116.91c-21.47,26.35-39.83,55.34-54.51,86.42l180.8,191.95,93.52,99.06,16.93,17.94c9.26-20.85,13.76-42.96,13.76-64.9,0-39.33-14.5-78.15-42.14-108.28Z"/>
        <path class="cls-1" d="M790.93,560.53l-304.78-1.17c11.08,35.23,26.66,68.49,46.04,99.06l218.59.29h4.06l2.97-6.7,40.51-91.32-7.39-.17Z"/>
      </g>
    </g>
    <g id="_Radial_Repeat_-3" data-name="&amp;lt;Radial Repeat&amp;gt;">
      <g>
        <path class="cls-1" d="M1068.63,48.84l-182.38,172.17-99.05,93.51-17.94,16.94c20.85,9.26,42.96,13.76,64.89,13.76,39.35,0,78.15-14.5,108.28-42.15l95.41-89.38,9.96-9.33,107.86-101.07c-26.55-21.49-55.74-39.83-87.03-54.45Z"/>
        <path class="cls-1" d="M671.48,69.86l-.25,212.38v5.73s9.2,4.09,9.2,4.09l88.82,39.41.15-7.39,1.06-297.75c-35.11,10.3-68.31,25.02-98.98,43.54Z"/>
      </g>
    </g>
    <g id="_Radial_Repeat_-4" data-name="&amp;lt;Radial Repeat&amp;gt;">
      <g>
        <path class="cls-1" d="M1108.93,419.38l-93.51-99.06-16.94-17.94c-9.26,20.85-13.76,42.96-13.76,64.89,0,39.35,14.5,78.16,42.15,108.29l89.52,95.47,9.2,9.81,100.83,107.54c20.78-27.25,38.3-57.12,52.03-89l-169.53-179.99Z"/>
        <path class="cls-1" d="M1246.31,204.61l-86.1-.11-85.43-.11-26.99-.03h-5.82s-4.14,9.33-4.14,9.33l-39.35,88.68,7.39.17,112.18.43,135.48.53h.13l39.16.15c-11.23-35.25-26.96-68.49-46.52-99.04Z"/>
        <line class="cls-1" x1="1276.02" y1="596.37" x2="1108.93" y2="419.38"/>
      </g>
    </g>
  </g>
</svg>