<svg xmlns="http://www.w3.org/2000/svg" xmlns:xlink="http://www.w3.org/1999/xlink" viewBox="112.72831683168316 0 182.5881188118812 793.70135" id="svg1" version="1.1" style="max-height: 500px" width="182.5881188118812" height="793.70135">
  <defs id="defs1">
    
    <pattern id="pattern90" height="691.715" width="668.11" y="0" x="0" patternUnits="userSpaceOnUse" patternTransform="matrix(0.780594,0,0,0.780594,-3043.44,2802.98)">
      <path id="path2" transform="translate(2.0447,577.7627)" style="fill:#435851 icc-color(sRGB IEC61966-2 0.1, 0.26298523, 0.34498596, 0.31799316);fill-opacity:1;fill-rule:nonzero;stroke:none" d="m 0,0 63.137,-0.242 0.869,-0.019 -8.704,-19.62 -46.038,0.061 C 5.355,-13.618 2.241,-6.954 0,0 m 54.883,-20.827 -0.001,-10e-4 21.85,20.819 c 6.113,5.606 14.048,8.694 22.343,8.694 4.417,0 8.71,-0.864 12.769,-2.57 L 87.864,-16.523 48.928,-53.822 c -6.313,2.725 -12.307,6.2 -17.827,10.338 l 23.782,22.657 z m 33.604,3.649 24.97,23.573 -0.62,0.276 c -4.359,1.936 -8.99,2.917 -13.762,2.917 -8.524,0 -16.677,-3.172 -22.957,-8.934 L 57.554,-17.034 65.382,0.612 -1.235,0.908 -1.05,0.318 c 2.302,-7.32 5.56,-14.329 9.683,-20.832 l 0.133,-0.209 44.853,-0.06 -23.911,-22.78 0.423,-0.321 c 5.775,-4.383 12.072,-8.046 18.716,-10.887 l 0.275,-0.117 39.365,37.71 z"/>
      <path id="path3" transform="translate(40.6521,680.3735)" style="fill:#435851 icc-color(sRGB IEC61966-2 0.1, 0.26298523, 0.34498596, 0.31799316);fill-opacity:1;fill-rule:nonzero;stroke:none" d="M 0,0 C 6.213,3.728 12.871,6.673 19.803,8.759 L 19.584,-52.92 19.566,-53.788 -0.054,-45.082 0,0 Z m -23.418,-20.405 23.364,-24.913 0,0 19.872,-21.192 c 5.607,-6.113 8.696,-14.05 8.696,-22.347 0,-4.417 -0.865,-8.709 -2.57,-12.769 l -22.636,23.98 -37.614,39.933 c 2.934,6.158 6.595,11.977 10.888,17.308 M 26.5,-102.619 c 1.936,4.36 2.917,8.99 2.917,13.762 0,8.525 -3.173,16.679 -8.935,22.96 l -17.207,18.35 17.167,-7.618 0.269,65.134 -0.582,-0.17 C 12.833,7.658 5.83,4.578 -0.685,0.642 l -0.218,-0.131 -0.052,-43.547 -22.512,24.004 -0.326,-0.4 c -4.545,-5.577 -8.402,-11.692 -11.462,-18.173 l -0.132,-0.278 61.611,-65.357 0.276,0.621 z"/>
      <path id="path4" transform="translate(118.0071,652.0376)" style="fill:#435851 icc-color(sRGB IEC61966-2 0.1, 0.26298523, 0.34498596, 0.31799316);fill-opacity:1;fill-rule:nonzero;stroke:none" d="m 0,0 42.21,-0.053 c 3.94,-6.193 7.087,-12.856 9.359,-19.815 l -59.403,0.23 -0.87,0.02 L 0,0 Z M 5.37,32.448 C 11.567,29.525 17.428,25.867 22.803,21.569 L 0.154,0.348 0.156,0.352 -21.429,-19.869 c -6.112,-5.609 -14.048,-8.698 -22.346,-8.698 -4.415,0 -8.706,0.864 -12.767,2.569 L 5.37,32.448 Z m -26.186,-52.981 18.34,17.18 -7.604,-17.138 62.889,-0.285 -0.188,0.591 c -2.334,7.327 -5.626,14.334 -9.783,20.827 L 42.706,0.85 2.067,0.901 24.179,21.62 23.775,21.946 c -5.621,4.55 -11.778,8.403 -18.3,11.451 l -0.279,0.13 -63.351,-59.805 0.62,-0.275 c 4.361,-1.936 8.99,-2.918 13.76,-2.918 8.526,0 16.68,3.175 22.959,8.938"/>
      <path id="path5" transform="translate(134.7581,574.8657)" style="fill:#435851 icc-color(sRGB IEC61966-2 0.1, 0.26298523, 0.34498596, 0.31799316);fill-opacity:1;fill-rule:nonzero;stroke:none" d="m 0,0 -19.869,21.19 c -5.611,6.112 -8.701,14.05 -8.701,22.352 0,4.414 0.864,8.706 2.57,12.766 L -3.364,32.328 31.9,-5.113 C 29.152,-11.436 25.658,-17.43 21.51,-22.941 L 0,0 Z m 0,-0.236 -0.03,-43.078 c -6.163,-4.123 -12.822,-7.447 -19.805,-9.888 L -19.64,7.599 -19.622,8.466 0,-0.236 Z m -20.144,-54.029 c 7.353,2.511 14.357,5.987 20.818,10.334 l 0.2,0.135 0.028,41.513 20.68,-22.056 0.324,0.424 c 4.395,5.766 8.076,12.062 10.942,18.716 l 0.117,0.273 -35.671,37.873 -23.574,24.974 -0.276,-0.62 c -1.936,-4.361 -2.917,-8.99 -2.917,-13.759 0,-8.529 3.174,-16.684 8.941,-22.966 l 17.204,-18.348 -17.17,7.615 -0.246,-64.312 0.6,0.204 z"/>
      <path id="path6" transform="translate(155.7117,532.9238)" style="fill:#435851 icc-color(sRGB IEC61966-2 0.1, 0.26298523, 0.34498596, 0.31799316);fill-opacity:1;fill-rule:nonzero;stroke:none" d="m 0,0 c 2.546,-1.136 5.258,-1.711 8.059,-1.711 4.99,0 9.767,1.859 13.453,5.239 l 9.953,9.326 -3.869,-8.729 c -1.136,-2.552 -1.712,-5.263 -1.712,-8.059 0,-4.995 1.86,-9.772 5.24,-13.453 l 9.339,-9.961 -8.743,3.878 c -2.555,1.132 -5.268,1.706 -8.063,1.706 -4.996,0 -9.771,-1.858 -13.45,-5.237 l -10.077,-9.598 3.995,9.004 c 1.133,2.55 1.707,5.261 1.707,8.058 0,4.995 -1.858,9.771 -5.234,13.454 L -8.746,3.878 0,0 Z m 10.824,-27.661 c 3.507,3.22 8.064,4.994 12.833,4.994 2.668,0 5.258,-0.549 7.697,-1.629 l 12.817,-5.686 -12.385,13.21 c -3.223,3.51 -4.998,8.07 -4.998,12.838 0,2.668 0.549,5.256 1.634,7.692 L 34.095,16.556 20.898,4.19 C 17.382,0.967 12.823,-0.808 8.059,-0.808 c -2.673,0 -5.261,0.55 -7.692,1.634 l -12.822,5.685 12.39,-13.209 c 3.22,-3.511 4.993,-8.071 4.993,-12.839 0,-2.67 -0.548,-5.257 -1.629,-7.692 l -5.841,-13.163 13.366,12.731 z"/>
      <path id="path7" transform="translate(167.8093,577.7627)" style="fill:#435851 icc-color(sRGB IEC61966-2 0.1, 0.26298523, 0.34498596, 0.31799316);fill-opacity:1;fill-rule:nonzero;stroke:none" d="m 0,0 63.137,-0.242 0.869,-0.019 -8.704,-19.62 -46.038,0.061 C 5.355,-13.618 2.241,-6.954 0,0 m 54.882,-20.828 0,0 21.85,20.819 c 6.113,5.606 14.048,8.694 22.342,8.694 4.418,0 8.71,-0.864 12.77,-2.57 L 87.864,-16.523 48.928,-53.822 c -6.313,2.725 -12.307,6.2 -17.827,10.338 l 23.781,22.656 z m 33.604,3.65 24.971,23.574 -0.62,0.275 c -4.36,1.936 -8.99,2.917 -13.763,2.917 -8.523,0 -16.676,-3.172 -22.956,-8.934 L 57.554,-17.034 65.382,0.612 -1.235,0.908 -1.05,0.318 c 2.302,-7.32 5.56,-14.329 9.683,-20.832 l 0.133,-0.209 44.853,-0.06 -23.912,-22.78 0.423,-0.321 c 5.776,-4.384 12.073,-8.046 18.717,-10.887 l 0.275,-0.117 39.364,37.71 z"/>
      <path id="path8" transform="translate(206.4163,680.3735)" style="fill:#435851 icc-color(sRGB IEC61966-2 0.1, 0.26298523, 0.34498596, 0.31799316);fill-opacity:1;fill-rule:nonzero;stroke:none" d="M 0,0 C 6.214,3.729 12.872,6.673 19.803,8.759 L 19.584,-52.92 19.566,-53.788 -0.053,-45.082 0,0 Z m -23.418,-20.405 22.984,-24.508 0,0 20.252,-21.597 c 5.607,-6.113 8.696,-14.05 8.696,-22.347 0,-4.417 -0.865,-8.709 -2.57,-12.769 l -22.635,23.98 -37.615,39.933 c 2.934,6.158 6.595,11.976 10.888,17.308 M 26.5,-102.619 c 1.936,4.36 2.917,8.99 2.917,13.762 0,8.525 -3.173,16.679 -8.935,22.96 l -17.206,18.35 17.165,-7.618 0.27,65.134 -0.582,-0.17 C 12.834,7.658 5.831,4.578 -0.685,0.642 l -0.218,-0.131 -0.052,-43.547 -22.512,24.004 -0.326,-0.4 c -4.545,-5.577 -8.401,-11.692 -11.462,-18.173 l -0.132,-0.278 61.611,-65.357 0.276,0.621 z"/>
      <path id="path9" transform="translate(283.7712,652.0376)" style="fill:#435851 icc-color(sRGB IEC61966-2 0.1, 0.26298523, 0.34498596, 0.31799316);fill-opacity:1;fill-rule:nonzero;stroke:none" d="m 0,0 42.21,-0.053 c 3.94,-6.194 7.087,-12.856 9.359,-19.815 l -59.403,0.23 -0.87,0.02 L 0,0 Z M 5.37,32.448 C 11.568,29.524 17.429,25.867 22.803,21.569 L 0.154,0.348 0.156,0.352 -21.428,-19.868 c -6.112,-5.61 -14.048,-8.699 -22.347,-8.699 -4.414,0 -8.706,0.864 -12.767,2.569 L 5.37,32.448 Z m -26.185,-52.981 18.339,17.18 -7.604,-17.138 62.89,-0.285 -0.189,0.591 c -2.334,7.327 -5.626,14.333 -9.782,20.827 L 42.706,0.85 2.067,0.901 24.179,21.62 23.776,21.946 c -5.621,4.55 -11.778,8.402 -18.301,11.451 l -0.278,0.13 -63.352,-59.805 0.62,-0.275 c 4.362,-1.936 8.991,-2.918 13.76,-2.918 8.526,0 16.68,3.175 22.96,8.938"/>
      <path id="path10" transform="translate(280.6531,596.0562)" style="fill:#435851 icc-color(sRGB IEC61966-2 0.1, 0.26298523, 0.34498596, 0.31799316);fill-opacity:1;fill-rule:nonzero;stroke:none" d="m 0,0 c -5.61,6.112 -8.7,14.05 -8.7,22.351 0,4.416 0.864,8.707 2.569,12.767 L 16.505,11.138 51.77,-26.304 C 49.02,-32.628 45.526,-38.622 41.379,-44.131 L 19.869,-21.19 0,0 Z M 19.869,-21.427 19.84,-64.505 C 13.676,-68.628 7.016,-71.952 0.034,-74.393 l 0.195,60.801 0.018,0.868 19.622,-8.703 z M -0.274,-75.455 c 7.352,2.51 14.356,5.986 20.818,10.334 l 0.199,0.134 0.028,41.514 20.68,-22.057 0.324,0.425 c 4.394,5.763 8.076,12.06 10.942,18.716 l 0.117,0.272 L 17.163,11.757 -6.411,36.73 -6.687,36.11 c -1.935,-4.36 -2.917,-8.989 -2.917,-13.759 0,-8.528 3.174,-16.683 8.941,-22.966 l 17.205,-18.347 -17.17,7.615 -0.247,-64.313 0.601,0.205 z"/>
      <path id="path11" transform="translate(321.4758,532.9238)" style="fill:#435851 icc-color(sRGB IEC61966-2 0.1, 0.26298523, 0.34498596, 0.31799316);fill-opacity:1;fill-rule:nonzero;stroke:none" d="m 0,0 c 2.547,-1.136 5.258,-1.711 8.059,-1.711 4.991,0 9.767,1.859 13.454,5.239 l 9.952,9.326 -3.869,-8.729 c -1.136,-2.552 -1.711,-5.263 -1.711,-8.059 0,-4.995 1.859,-9.772 5.239,-13.453 l 9.339,-9.961 -8.742,3.878 c -2.556,1.132 -5.269,1.706 -8.064,1.706 -4.995,0 -9.77,-1.858 -13.45,-5.237 l -10.076,-9.598 3.995,9.004 c 1.132,2.55 1.706,5.261 1.706,8.058 0,4.994 -1.857,9.771 -5.234,13.454 L -8.746,3.878 0,0 Z m 10.824,-27.661 c 3.507,3.22 8.065,4.994 12.833,4.994 2.668,0 5.258,-0.549 7.697,-1.629 l 12.817,-5.686 -12.384,13.21 c -3.224,3.51 -4.999,8.07 -4.999,12.838 0,2.668 0.55,5.256 1.634,7.692 L 34.095,16.557 20.898,4.19 C 17.383,0.967 12.823,-0.808 8.059,-0.808 c -2.673,0 -5.261,0.55 -7.692,1.634 l -12.822,5.685 12.39,-13.209 c 3.22,-3.512 4.994,-8.072 4.994,-12.839 0,-2.67 -0.549,-5.257 -1.629,-7.692 l -5.841,-13.163 13.365,12.731 z"/>
      <path id="path12" transform="translate(333.574,577.7627)" style="fill:#435851 icc-color(sRGB IEC61966-2 0.1, 0.26298523, 0.34498596, 0.31799316);fill-opacity:1;fill-rule:nonzero;stroke:none" d="m 0,0 63.137,-0.242 0.869,-0.019 -8.704,-19.62 -46.039,0.061 C 5.355,-13.618 2.24,-6.954 0,0 m 54.882,-20.828 0,0 21.85,20.819 c 6.112,5.606 14.047,8.694 22.342,8.694 4.418,0 8.71,-0.864 12.77,-2.57 L 87.864,-16.523 48.927,-53.822 c -6.313,2.725 -12.306,6.2 -17.826,10.338 l 23.781,22.656 z m 33.604,3.65 24.971,23.574 -0.621,0.275 c -4.359,1.936 -8.989,2.917 -13.762,2.917 -8.523,0 -16.676,-3.172 -22.956,-8.934 L 57.554,-17.034 65.382,0.612 -1.235,0.908 -1.05,0.318 c 2.301,-7.319 5.559,-14.329 9.682,-20.832 l 0.134,-0.209 44.853,-0.06 -23.912,-22.78 0.423,-0.321 c 5.776,-4.384 12.073,-8.046 18.716,-10.887 l 0.275,-0.117 39.365,37.71 z"/>
      <path id="path13" transform="translate(372.1809,680.3735)" style="fill:#435851 icc-color(sRGB IEC61966-2 0.1, 0.26298523, 0.34498596, 0.31799316);fill-opacity:1;fill-rule:nonzero;stroke:none" d="M 0,0 C 6.213,3.728 12.871,6.673 19.803,8.759 L 19.584,-52.92 19.566,-53.788 -0.054,-45.082 0,0 Z m -23.418,-20.405 23.364,-24.913 0,0 19.872,-21.192 c 5.607,-6.113 8.696,-14.05 8.696,-22.347 0,-4.417 -0.865,-8.709 -2.57,-12.769 l -22.635,23.98 -37.615,39.933 c 2.934,6.158 6.595,11.977 10.888,17.308 M 26.5,-102.619 c 1.936,4.36 2.917,8.99 2.917,13.762 0,8.525 -3.173,16.679 -8.935,22.96 l -17.207,18.35 17.167,-7.618 0.269,65.134 -0.582,-0.17 C 12.833,7.658 5.83,4.578 -0.685,0.642 l -0.218,-0.131 -0.052,-43.547 -22.512,24.004 -0.326,-0.4 c -4.545,-5.577 -8.402,-11.692 -11.462,-18.173 l -0.132,-0.278 61.611,-65.357 0.276,0.621 z"/>
      <path id="path14" transform="translate(449.5359,652.0376)" style="fill:#435851 icc-color(sRGB IEC61966-2 0.1, 0.26298523, 0.34498596, 0.31799316);fill-opacity:1;fill-rule:nonzero;stroke:none" d="m 0,0 42.21,-0.053 c 3.94,-6.193 7.087,-12.856 9.359,-19.815 l -59.403,0.23 -0.87,0.02 L 0,0 Z M 5.37,32.448 C 11.567,29.525 17.428,25.867 22.803,21.569 L 0.154,0.348 0.156,0.352 -21.428,-19.868 c -6.112,-5.61 -14.049,-8.699 -22.347,-8.699 -4.415,0 -8.706,0.864 -12.767,2.569 L 5.37,32.448 Z m -26.185,-52.981 18.339,17.18 -7.604,-17.138 62.889,-0.285 -0.188,0.591 c -2.334,7.327 -5.626,14.334 -9.783,20.827 L 42.706,0.85 2.067,0.901 24.179,21.62 23.775,21.946 c -5.621,4.55 -11.778,8.403 -18.3,11.451 l -0.279,0.13 -63.351,-59.805 0.62,-0.275 c 4.361,-1.936 8.99,-2.918 13.76,-2.918 8.526,0 16.68,3.175 22.96,8.938"/>
      <path id="path15" transform="translate(446.4177,596.0562)" style="fill:#435851 icc-color(sRGB IEC61966-2 0.1, 0.26298523, 0.34498596, 0.31799316);fill-opacity:1;fill-rule:nonzero;stroke:none" d="m 0,0 c -5.611,6.112 -8.701,14.05 -8.701,22.351 0,4.415 0.865,8.706 2.57,12.767 L 16.505,11.138 51.769,-26.304 C 49.021,-32.626 45.527,-38.62 41.379,-44.131 L 19.869,-21.19 0,0 Z m 19.869,-21.427 -0.03,-43.078 C 13.676,-68.627 7.017,-71.952 0.034,-74.393 l 0.195,60.801 0.018,0.868 19.622,-8.703 z M -0.274,-75.455 c 7.353,2.51 14.357,5.987 20.817,10.334 l 0.2,0.134 0.028,41.514 20.68,-22.057 0.324,0.425 c 4.395,5.765 8.077,12.062 10.942,18.716 l 0.117,0.272 L 17.163,11.757 -6.411,36.73 -6.687,36.11 c -1.936,-4.36 -2.917,-8.989 -2.917,-13.759 0,-8.528 3.174,-16.683 8.941,-22.966 l 17.205,-18.347 -17.171,7.615 -0.246,-64.313 0.601,0.205 z"/>
      <path id="path16" transform="translate(487.2405,532.9238)" style="fill:#435851 icc-color(sRGB IEC61966-2 0.1, 0.26298523, 0.34498596, 0.31799316);fill-opacity:1;fill-rule:nonzero;stroke:none" d="m 0,0 c 2.547,-1.136 5.258,-1.711 8.059,-1.711 4.99,0 9.767,1.859 13.453,5.239 l 9.953,9.326 -3.869,-8.729 c -1.136,-2.552 -1.712,-5.263 -1.712,-8.059 0,-4.995 1.86,-9.772 5.24,-13.453 l 9.339,-9.961 -8.743,3.878 c -2.555,1.132 -5.267,1.706 -8.063,1.706 -4.996,0 -9.771,-1.858 -13.45,-5.237 l -10.076,-9.598 3.994,9.004 c 1.133,2.55 1.707,5.261 1.707,8.058 0,4.995 -1.858,9.771 -5.234,13.454 L -8.746,3.878 0,0 Z m 10.824,-27.661 c 3.507,3.22 8.064,4.994 12.833,4.994 2.669,0 5.258,-0.549 7.697,-1.629 l 12.817,-5.686 -12.385,13.21 c -3.223,3.51 -4.998,8.07 -4.998,12.838 0,2.668 0.549,5.256 1.634,7.692 L 34.095,16.556 20.898,4.19 C 17.382,0.967 12.823,-0.808 8.059,-0.808 c -2.673,0 -5.261,0.55 -7.692,1.634 l -12.822,5.685 12.39,-13.209 c 3.22,-3.511 4.993,-8.071 4.993,-12.839 0,-2.67 -0.548,-5.257 -1.629,-7.692 l -5.84,-13.163 13.365,12.731 z"/>
      <path id="path17" transform="translate(499.3381,577.7627)" style="fill:#435851 icc-color(sRGB IEC61966-2 0.1, 0.26298523, 0.34498596, 0.31799316);fill-opacity:1;fill-rule:nonzero;stroke:none" d="m 0,0 63.137,-0.242 0.869,-0.019 -8.704,-19.62 -46.038,0.061 C 5.355,-13.618 2.241,-6.954 0,0 m 54.882,-20.828 0,0 21.85,20.819 c 6.113,5.606 14.048,8.694 22.343,8.694 4.417,0 8.71,-0.864 12.769,-2.57 L 87.864,-16.523 48.928,-53.822 c -6.313,2.725 -12.307,6.2 -17.827,10.338 l 23.781,22.656 z m 33.604,3.65 24.971,23.573 -0.62,0.276 c -4.359,1.936 -8.99,2.917 -13.762,2.917 -8.523,0 -16.677,-3.172 -22.957,-8.934 L 57.554,-17.034 65.382,0.612 -1.235,0.908 -1.05,0.318 c 2.302,-7.32 5.56,-14.329 9.683,-20.832 l 0.133,-0.209 44.853,-0.06 -23.912,-22.78 0.423,-0.321 c 5.776,-4.384 12.073,-8.046 18.717,-10.887 l 0.275,-0.117 39.364,37.71 z"/>
      <path id="path18" transform="translate(537.9451,680.3735)" style="fill:#435851 icc-color(sRGB IEC61966-2 0.1, 0.26298523, 0.34498596, 0.31799316);fill-opacity:1;fill-rule:nonzero;stroke:none" d="M 0,0 C 6.214,3.729 12.872,6.673 19.803,8.759 L 19.584,-52.92 19.566,-53.788 -0.053,-45.082 0,0 Z m -23.417,-20.405 22.983,-24.508 0,0 20.252,-21.597 c 5.607,-6.113 8.696,-14.05 8.696,-22.347 0,-4.417 -0.865,-8.709 -2.57,-12.769 l -22.635,23.98 -37.615,39.933 c 2.935,6.158 6.596,11.977 10.889,17.308 M 26.5,-102.619 c 1.936,4.36 2.917,8.99 2.917,13.762 0,8.525 -3.173,16.679 -8.935,22.96 l -17.206,18.35 17.165,-7.618 0.27,65.134 -0.582,-0.17 C 12.834,7.658 5.831,4.578 -0.685,0.642 l -0.218,-0.131 -0.052,-43.547 -22.511,24.004 -0.326,-0.4 c -4.545,-5.577 -8.402,-11.691 -11.463,-18.173 l -0.132,-0.278 61.611,-65.357 0.276,0.621 z"/>
      <path id="path19" transform="translate(615.3005,652.0376)" style="fill:#435851 icc-color(sRGB IEC61966-2 0.1, 0.26298523, 0.34498596, 0.31799316);fill-opacity:1;fill-rule:nonzero;stroke:none" d="m 0,0 42.21,-0.053 c 3.94,-6.193 7.087,-12.856 9.359,-19.815 l -59.404,0.23 -0.869,0.02 L 0,0 Z M 5.37,32.448 C 11.567,29.525 17.428,25.867 22.803,21.569 L 0.155,0.349 0.156,0.352 -21.429,-19.869 c -6.112,-5.609 -14.048,-8.698 -22.346,-8.698 -4.415,0 -8.706,0.864 -12.767,2.569 L 5.37,32.448 Z m -26.186,-52.981 18.34,17.18 -7.604,-17.138 62.889,-0.285 -0.188,0.591 c -2.334,7.327 -5.626,14.334 -9.783,20.827 L 42.706,0.85 2.066,0.901 24.179,21.62 23.775,21.946 c -5.621,4.55 -11.778,8.403 -18.3,11.451 l -0.279,0.13 -63.351,-59.805 0.62,-0.275 c 4.361,-1.936 8.99,-2.918 13.76,-2.918 8.526,0 16.68,3.175 22.959,8.938"/>
      <path id="path20" transform="translate(612.1819,596.0562)" style="fill:#435851 icc-color(sRGB IEC61966-2 0.1, 0.26298523, 0.34498596, 0.31799316);fill-opacity:1;fill-rule:nonzero;stroke:none" d="m 0,0 c -5.61,6.112 -8.7,14.05 -8.7,22.351 0,4.416 0.864,8.707 2.569,12.767 L 16.505,11.138 51.77,-26.304 C 49.02,-32.628 45.526,-38.622 41.379,-44.131 L 19.869,-21.19 0,0 Z M 19.869,-21.427 19.84,-64.505 C 13.676,-68.628 7.016,-71.952 0.034,-74.393 l 0.195,60.801 0.018,0.868 19.622,-8.703 z M -0.274,-75.455 c 7.352,2.51 14.356,5.986 20.818,10.334 l 0.199,0.134 0.028,41.514 20.68,-22.057 0.324,0.425 c 4.394,5.763 8.076,12.06 10.942,18.716 l 0.117,0.272 L 17.163,11.757 -6.411,36.73 -6.687,36.11 c -1.935,-4.36 -2.917,-8.989 -2.917,-13.759 0,-8.528 3.174,-16.683 8.941,-22.966 l 17.205,-18.347 -17.17,7.615 -0.247,-64.313 0.601,0.205 z"/>
      <path id="path21" transform="translate(30.1672,502.9419)" style="fill:#435851 icc-color(sRGB IEC61966-2 0.1, 0.26298523, 0.34498596, 0.31799316);fill-opacity:1;fill-rule:nonzero;stroke:none" d="m 0,0 -12.817,5.686 c -2.439,1.08 -5.028,1.628 -7.697,1.628 -3.218,0 -6.404,-0.824 -9.214,-2.383 l -0.439,0.79 c 2.944,1.633 6.282,2.497 9.653,2.497 2.796,0 5.508,-0.574 8.063,-1.706 l 8.743,-3.878 -9.339,9.961 c -3.38,3.68 -5.239,8.457 -5.239,13.453 0,2.797 0.576,5.508 1.711,8.059 l 3.869,8.729 -9.953,-9.326 c -2.078,-1.906 -4.481,-3.323 -7.145,-4.214 l -0.286,0.858 c 2.542,0.849 4.836,2.202 6.817,4.018 l 13.197,12.366 -5.673,-12.798 c -1.084,-2.435 -1.634,-5.023 -1.634,-7.692 0,-4.769 1.776,-9.328 4.999,-12.839 L 0,0 Z"/>
      <path id="path22" transform="translate(650.4636,492.5317)" style="fill:#435851 icc-color(sRGB IEC61966-2 0.1, 0.26298523, 0.34498596, 0.31799316);fill-opacity:1;fill-rule:nonzero;stroke:none" d="m 0,0 5.841,13.164 c 1.08,2.434 1.629,5.021 1.629,7.691 0,4.768 -1.774,9.327 -4.994,12.839 L -9.914,46.903 2.909,41.218 c 4.295,-1.916 9.233,-2.152 13.713,-0.654 l 0.286,-0.857 c -2.037,-0.681 -4.159,-1.026 -6.307,-1.026 -2.802,0 -5.513,0.575 -8.059,1.711 l -8.747,3.878 9.344,-9.961 c 3.377,-3.684 5.234,-8.46 5.234,-13.454 0,-2.797 -0.574,-5.508 -1.706,-8.058 L 2.672,3.793 12.748,13.391 c 1.156,1.062 2.432,1.983 3.797,2.74 l 0.439,-0.79 C 15.68,14.618 14.463,13.74 13.365,12.731 L 0,0 Z"/>
      <path id="path23" transform="translate(2.0447,404.2974)" style="fill:#435851 icc-color(sRGB IEC61966-2 0.1, 0.26298523, 0.34498596, 0.31799316);fill-opacity:1;fill-rule:nonzero;stroke:none" d="M 0,0 63.137,-0.242 64.006,-0.261 55.302,-19.882 9.264,-19.82 C 5.355,-13.618 2.241,-6.954 0,0 m 54.883,-20.828 -0.001,0 21.85,20.818 c 6.113,5.607 14.047,8.695 22.343,8.695 4.416,0 8.709,-0.864 12.769,-2.57 L 87.864,-16.523 48.928,-53.822 c -6.313,2.725 -12.307,6.2 -17.827,10.338 l 23.782,22.656 z m 33.604,3.65 24.97,23.574 -0.62,0.275 c -4.36,1.936 -8.991,2.917 -13.762,2.917 -8.524,0 -16.677,-3.172 -22.957,-8.935 L 57.554,-17.034 65.382,0.612 -1.235,0.908 -1.05,0.318 c 2.302,-7.32 5.56,-14.329 9.683,-20.832 l 0.133,-0.209 44.853,-0.06 -23.911,-22.78 0.423,-0.321 c 5.775,-4.383 12.072,-8.046 18.716,-10.887 l 0.275,-0.117 39.365,37.71 z"/>
      <path id="path24" transform="translate(40.6521,506.9082)" style="fill:#435851 icc-color(sRGB IEC61966-2 0.1, 0.26298523, 0.34498596, 0.31799316);fill-opacity:1;fill-rule:nonzero;stroke:none" d="M 0,0 C 6.213,3.728 12.871,6.673 19.803,8.759 L 19.584,-52.92 19.566,-53.788 -0.054,-45.082 0,0 Z m -23.418,-20.405 23.364,-24.913 0,0 19.872,-21.192 c 5.607,-6.113 8.696,-14.05 8.696,-22.347 0,-4.417 -0.865,-8.709 -2.57,-12.769 l -22.636,23.98 -37.614,39.933 c 2.934,6.158 6.595,11.977 10.888,17.308 M 26.5,-102.619 c 1.936,4.36 2.917,8.99 2.917,13.762 0,8.525 -3.173,16.679 -8.935,22.96 l -17.207,18.35 17.167,-7.618 0.269,65.134 -0.582,-0.17 C 12.833,7.658 5.83,4.578 -0.685,0.642 l -0.218,-0.131 -0.052,-43.547 -22.512,24.004 -0.326,-0.4 c -4.545,-5.577 -8.401,-11.691 -11.462,-18.173 l -0.132,-0.278 61.611,-65.357 0.276,0.621 z"/>
      <path id="path25" transform="translate(118.0071,478.5723)" style="fill:#435851 icc-color(sRGB IEC61966-2 0.1, 0.26298523, 0.34498596, 0.31799316);fill-opacity:1;fill-rule:nonzero;stroke:none" d="m 0,0 42.21,-0.054 c 3.94,-6.193 7.087,-12.856 9.359,-19.814 l -59.403,0.23 -0.87,0.02 L 0,0 Z m 5.37,32.448 c 6.196,-2.923 12.058,-6.58 17.433,-10.879 L 0.154,0.348 0.156,0.352 -21.429,-19.869 c -6.112,-5.609 -14.048,-8.698 -22.346,-8.698 -4.415,0 -8.706,0.864 -12.767,2.569 L 5.37,32.448 Z m -26.186,-52.981 18.34,17.18 -7.604,-17.138 62.889,-0.285 -0.188,0.591 c -2.334,7.326 -5.625,14.333 -9.783,20.827 L 42.706,0.85 2.067,0.901 24.179,21.62 23.775,21.946 c -5.621,4.551 -11.778,8.403 -18.3,11.45 l -0.279,0.131 -63.351,-59.805 0.62,-0.275 c 4.361,-1.936 8.99,-2.918 13.76,-2.918 8.526,0 16.68,3.175 22.959,8.938"/>
      <path id="path26" transform="translate(134.7581,401.4004)" style="fill:#435851 icc-color(sRGB IEC61966-2 0.1, 0.26298523, 0.34498596, 0.31799316);fill-opacity:1;fill-rule:nonzero;stroke:none" d="m 0,0 -19.869,21.19 c -5.611,6.112 -8.701,14.05 -8.701,22.352 0,4.414 0.864,8.706 2.57,12.766 L -3.364,32.328 31.9,-5.113 C 29.152,-11.436 25.658,-17.43 21.51,-22.941 L 0,0 Z m 0,-0.236 -0.03,-43.078 c -6.164,-4.124 -12.824,-7.448 -19.805,-9.888 L -19.64,7.599 -19.622,8.466 0,-0.236 Z m -20.144,-54.029 c 7.352,2.509 14.356,5.986 20.818,10.334 l 0.2,0.135 0.028,41.513 20.68,-22.056 0.324,0.424 c 4.395,5.766 8.076,12.062 10.942,18.716 l 0.117,0.273 -35.671,37.873 -23.574,24.974 -0.276,-0.62 c -1.936,-4.361 -2.917,-8.99 -2.917,-13.759 0,-8.529 3.174,-16.684 8.941,-22.966 l 17.204,-18.348 -17.17,7.615 -0.246,-64.312 0.6,0.204 z"/>
      <path id="path27" transform="translate(155.7117,359.4585)" style="fill:#435851 icc-color(sRGB IEC61966-2 0.1, 0.26298523, 0.34498596, 0.31799316);fill-opacity:1;fill-rule:nonzero;stroke:none" d="m 0,0 c 2.546,-1.136 5.258,-1.711 8.059,-1.711 4.99,0 9.767,1.859 13.453,5.239 l 9.953,9.326 -3.869,-8.729 c -1.136,-2.552 -1.712,-5.263 -1.712,-8.059 0,-4.995 1.86,-9.772 5.24,-13.453 l 9.339,-9.961 -8.743,3.878 c -2.554,1.132 -5.267,1.705 -8.063,1.705 -4.996,0 -9.771,-1.857 -13.45,-5.236 l -10.077,-9.598 3.995,9.004 c 1.133,2.55 1.707,5.261 1.707,8.058 0,4.995 -1.858,9.771 -5.234,13.454 L -8.746,3.878 0,0 Z m 10.824,-27.661 c 3.506,3.22 8.064,4.993 12.833,4.993 2.669,0 5.259,-0.548 7.697,-1.628 l 12.817,-5.686 -12.385,13.21 c -3.223,3.51 -4.998,8.07 -4.998,12.838 0,2.668 0.549,5.256 1.634,7.692 L 34.095,16.556 20.898,4.19 C 17.382,0.967 12.823,-0.808 8.059,-0.808 c -2.673,0 -5.261,0.55 -7.692,1.634 l -12.822,5.685 12.39,-13.209 c 3.22,-3.511 4.993,-8.071 4.993,-12.839 0,-2.67 -0.548,-5.257 -1.629,-7.692 l -5.841,-13.163 13.366,12.731 z"/>
      <path id="path28" transform="translate(167.8093,404.2974)" style="fill:#435851 icc-color(sRGB IEC61966-2 0.1, 0.26298523, 0.34498596, 0.31799316);fill-opacity:1;fill-rule:nonzero;stroke:none" d="M 0,0 63.137,-0.242 64.006,-0.261 55.302,-19.882 9.264,-19.82 C 5.355,-13.618 2.241,-6.954 0,0 m 55.875,-19.883 -10e-4,0 20.858,19.873 c 6.113,5.607 14.047,8.695 22.342,8.695 4.417,0 8.709,-0.864 12.77,-2.57 L 87.864,-16.523 48.928,-53.822 c -6.313,2.725 -12.307,6.2 -17.827,10.338 l 24.774,23.601 z m 32.611,2.705 24.971,23.574 -0.62,0.275 c -4.361,1.936 -8.991,2.917 -13.763,2.917 -8.523,0 -16.676,-3.172 -22.956,-8.935 L 57.554,-17.034 65.382,0.612 -1.235,0.908 -1.05,0.318 c 2.302,-7.32 5.56,-14.329 9.683,-20.832 l 0.133,-0.209 44.853,-0.06 -23.912,-22.78 0.423,-0.321 c 5.776,-4.384 12.073,-8.046 18.717,-10.887 l 0.275,-0.117 39.364,37.71 z"/>
      <path id="path29" transform="translate(206.4163,506.9082)" style="fill:#435851 icc-color(sRGB IEC61966-2 0.1, 0.26298523, 0.34498596, 0.31799316);fill-opacity:1;fill-rule:nonzero;stroke:none" d="M 0,0 C 6.214,3.729 12.872,6.673 19.803,8.759 L 19.584,-52.92 19.566,-53.788 -0.053,-45.082 0,0 Z m -23.418,-20.405 22.984,-24.508 0,0 20.252,-21.597 c 5.607,-6.113 8.696,-14.05 8.696,-22.347 0,-4.417 -0.865,-8.709 -2.57,-12.769 l -22.635,23.98 -37.615,39.933 c 2.935,6.158 6.596,11.977 10.888,17.308 M 26.5,-102.619 c 1.936,4.36 2.917,8.99 2.917,13.762 0,8.525 -3.173,16.679 -8.935,22.96 l -17.206,18.35 17.165,-7.618 0.27,65.134 -0.582,-0.17 C 12.834,7.658 5.831,4.578 -0.685,0.642 l -0.218,-0.131 -0.052,-43.547 -22.512,24.004 -0.326,-0.4 c -4.544,-5.577 -8.401,-11.691 -11.462,-18.173 l -0.132,-0.278 61.611,-65.357 0.276,0.621 z"/>
      <path id="path30" transform="translate(283.7712,478.5723)" style="fill:#435851 icc-color(sRGB IEC61966-2 0.1, 0.26298523, 0.34498596, 0.31799316);fill-opacity:1;fill-rule:nonzero;stroke:none" d="m 0,0 42.21,-0.054 c 3.94,-6.193 7.087,-12.856 9.359,-19.814 l -59.403,0.23 -0.87,0.02 L 0,0 Z M 5.37,32.448 C 11.567,29.525 17.429,25.867 22.803,21.569 L 0.154,0.348 0.156,0.352 -21.428,-19.868 c -6.112,-5.61 -14.048,-8.699 -22.347,-8.699 -4.414,0 -8.706,0.864 -12.767,2.569 L 5.37,32.448 Z m -26.185,-52.981 18.339,17.18 -7.604,-17.138 62.89,-0.285 -0.189,0.591 c -2.334,7.326 -5.625,14.332 -9.782,20.827 L 42.706,0.85 2.067,0.901 24.179,21.62 23.776,21.946 c -5.621,4.55 -11.778,8.403 -18.301,11.45 l -0.278,0.131 -63.352,-59.805 0.62,-0.275 c 4.362,-1.936 8.991,-2.918 13.76,-2.918 8.526,0 16.68,3.175 22.96,8.938"/>
      <path id="path31" transform="translate(280.6531,422.5908)" style="fill:#435851 icc-color(sRGB IEC61966-2 0.1, 0.26298523, 0.34498596, 0.31799316);fill-opacity:1;fill-rule:nonzero;stroke:none" d="m 0,0 c -5.61,6.112 -8.7,14.05 -8.7,22.351 0,4.416 0.864,8.707 2.569,12.767 L 16.505,11.138 51.77,-26.304 C 49.02,-32.628 45.526,-38.622 41.379,-44.131 L 19.869,-21.19 0,0 Z M 19.869,-21.427 19.84,-64.505 C 13.674,-68.629 7.015,-71.953 0.034,-74.393 l 0.195,60.801 0.018,0.868 19.622,-8.703 z M -0.274,-75.455 c 7.35,2.509 14.355,5.985 20.818,10.334 l 0.199,0.134 0.028,41.514 20.68,-22.057 0.324,0.425 c 4.394,5.763 8.076,12.06 10.942,18.716 l 0.117,0.272 L 17.163,11.757 -6.411,36.73 -6.687,36.11 c -1.935,-4.36 -2.917,-8.989 -2.917,-13.759 0,-8.528 3.174,-16.683 8.941,-22.966 l 17.205,-18.347 -17.17,7.615 -0.247,-64.313 0.601,0.205 z"/>
      <path id="path32" transform="translate(321.4758,359.4585)" style="fill:#435851 icc-color(sRGB IEC61966-2 0.1, 0.26298523, 0.34498596, 0.31799316);fill-opacity:1;fill-rule:nonzero;stroke:none" d="m 0,0 c 2.547,-1.136 5.258,-1.711 8.059,-1.711 4.991,0 9.767,1.859 13.454,5.239 l 9.952,9.326 -3.869,-8.729 c -1.136,-2.552 -1.711,-5.263 -1.711,-8.059 0,-4.995 1.859,-9.772 5.239,-13.453 l 9.339,-9.961 -8.742,3.878 c -2.555,1.132 -5.268,1.705 -8.064,1.705 -4.996,0 -9.77,-1.857 -13.45,-5.236 l -10.076,-9.598 3.995,9.004 c 1.132,2.55 1.706,5.261 1.706,8.058 0,4.994 -1.857,9.77 -5.234,13.454 L -8.746,3.878 0,0 Z m 10.824,-27.661 c 3.507,3.22 8.064,4.993 12.833,4.993 2.669,0 5.259,-0.548 7.697,-1.628 l 12.817,-5.686 -12.384,13.21 c -3.224,3.51 -4.999,8.07 -4.999,12.838 0,2.668 0.55,5.256 1.634,7.692 L 34.095,16.557 20.898,4.19 C 17.383,0.967 12.823,-0.808 8.059,-0.808 c -2.673,0 -5.261,0.55 -7.692,1.634 l -12.822,5.685 12.39,-13.209 c 3.22,-3.512 4.994,-8.072 4.994,-12.839 0,-2.67 -0.549,-5.257 -1.629,-7.692 l -5.841,-13.163 13.365,12.731 z"/>
      <path id="path33" transform="translate(333.574,404.2974)" style="fill:#435851 icc-color(sRGB IEC61966-2 0.1, 0.26298523, 0.34498596, 0.31799316);fill-opacity:1;fill-rule:nonzero;stroke:none" d="M 0,0 63.137,-0.242 64.006,-0.261 55.302,-19.882 9.263,-19.82 C 5.355,-13.618 2.24,-6.954 0,0 m 55.875,-19.883 -10e-4,0 20.858,19.873 c 6.112,5.607 14.047,8.695 22.342,8.695 4.417,0 8.709,-0.864 12.77,-2.57 L 87.864,-16.523 48.927,-53.822 c -6.313,2.725 -12.306,6.2 -17.826,10.338 l 24.774,23.601 z m 32.611,2.705 24.971,23.574 -0.621,0.275 c -4.36,1.936 -8.99,2.917 -13.762,2.917 -8.523,0 -16.676,-3.172 -22.956,-8.935 L 57.554,-17.034 65.382,0.612 -1.235,0.908 -1.05,0.318 c 2.301,-7.319 5.559,-14.329 9.682,-20.832 l 0.134,-0.209 44.853,-0.06 -23.912,-22.78 0.423,-0.321 c 5.776,-4.384 12.073,-8.046 18.716,-10.887 l 0.275,-0.117 39.365,37.71 z"/>
      <path id="path34" transform="translate(372.1809,506.9082)" style="fill:#435851 icc-color(sRGB IEC61966-2 0.1, 0.26298523, 0.34498596, 0.31799316);fill-opacity:1;fill-rule:nonzero;stroke:none" d="M 0,0 C 6.213,3.728 12.871,6.673 19.803,8.759 L 19.584,-52.92 19.566,-53.788 -0.054,-45.082 0,0 Z m -23.418,-20.405 23.364,-24.913 0,0 19.872,-21.192 c 5.607,-6.113 8.696,-14.05 8.696,-22.347 0,-4.417 -0.865,-8.709 -2.57,-12.769 l -22.635,23.98 -37.615,39.933 c 2.934,6.158 6.595,11.977 10.888,17.308 M 26.5,-102.619 c 1.936,4.36 2.917,8.99 2.917,13.762 0,8.525 -3.173,16.679 -8.935,22.96 l -17.207,18.35 17.167,-7.618 0.269,65.134 -0.582,-0.17 C 12.833,7.658 5.83,4.578 -0.685,0.642 l -0.218,-0.131 -0.052,-43.547 -22.512,24.004 -0.326,-0.4 c -4.545,-5.577 -8.401,-11.691 -11.462,-18.173 l -0.132,-0.278 61.611,-65.357 0.276,0.621 z"/>
      <path id="path35" transform="translate(449.5359,478.5723)" style="fill:#435851 icc-color(sRGB IEC61966-2 0.1, 0.26298523, 0.34498596, 0.31799316);fill-opacity:1;fill-rule:nonzero;stroke:none" d="m 0,0 42.21,-0.054 c 3.94,-6.193 7.087,-12.856 9.359,-19.814 l -59.403,0.23 -0.87,0.02 L 0,0 Z m 5.37,32.448 c 6.196,-2.923 12.058,-6.58 17.433,-10.879 L 0.154,0.348 0.156,0.352 -21.428,-19.869 c -6.113,-5.609 -14.049,-8.698 -22.347,-8.698 -4.415,0 -8.706,0.864 -12.767,2.569 L 5.37,32.448 Z m -26.185,-52.981 18.339,17.18 -7.604,-17.138 62.889,-0.285 -0.188,0.591 c -2.334,7.326 -5.625,14.333 -9.783,20.827 L 42.706,0.85 2.067,0.901 24.179,21.62 23.775,21.946 c -5.621,4.551 -11.778,8.403 -18.3,11.45 l -0.279,0.131 -63.351,-59.805 0.62,-0.275 c 4.361,-1.936 8.99,-2.918 13.76,-2.918 8.526,0 16.68,3.175 22.96,8.938"/>
      <path id="path36" transform="translate(446.4177,422.5908)" style="fill:#435851 icc-color(sRGB IEC61966-2 0.1, 0.26298523, 0.34498596, 0.31799316);fill-opacity:1;fill-rule:nonzero;stroke:none" d="m 0,0 c -5.611,6.112 -8.701,14.05 -8.701,22.351 0,4.415 0.865,8.706 2.57,12.767 L 16.505,11.138 51.769,-26.304 C 49.021,-32.626 45.527,-38.62 41.379,-44.131 L 19.869,-21.19 0,0 Z m 19.869,-21.427 -0.03,-43.078 C 13.675,-68.628 7.016,-71.953 0.034,-74.393 l 0.195,60.801 0.018,0.868 19.622,-8.703 z M -0.274,-75.455 c 7.351,2.509 14.355,5.986 20.817,10.334 l 0.2,0.134 0.028,41.514 20.68,-22.057 0.324,0.425 c 4.395,5.765 8.077,12.062 10.942,18.716 l 0.117,0.272 L 17.163,11.757 -6.411,36.73 -6.687,36.11 c -1.936,-4.36 -2.917,-8.989 -2.917,-13.759 0,-8.528 3.174,-16.683 8.941,-22.966 l 17.205,-18.347 -17.171,7.615 -0.246,-64.313 0.601,0.205 z"/>
      <path id="path37" transform="translate(487.2405,359.4585)" style="fill:#435851 icc-color(sRGB IEC61966-2 0.1, 0.26298523, 0.34498596, 0.31799316);fill-opacity:1;fill-rule:nonzero;stroke:none" d="m 0,0 c 2.547,-1.136 5.258,-1.711 8.059,-1.711 4.99,0 9.767,1.859 13.453,5.239 l 9.953,9.326 -3.869,-8.729 c -1.136,-2.552 -1.712,-5.263 -1.712,-8.059 0,-4.995 1.86,-9.772 5.24,-13.453 l 9.339,-9.961 -8.743,3.878 c -2.554,1.132 -5.267,1.705 -8.063,1.705 -4.996,0 -9.771,-1.857 -13.45,-5.236 l -10.076,-9.598 3.994,9.004 c 1.133,2.55 1.707,5.261 1.707,8.058 0,4.995 -1.858,9.771 -5.234,13.454 L -8.746,3.878 0,0 Z m 10.824,-27.661 c 3.506,3.22 8.064,4.993 12.833,4.993 2.669,0 5.259,-0.548 7.697,-1.628 l 12.817,-5.686 -12.385,13.21 c -3.223,3.51 -4.998,8.07 -4.998,12.838 0,2.668 0.549,5.256 1.634,7.692 L 34.095,16.556 20.898,4.19 C 17.382,0.967 12.823,-0.808 8.059,-0.808 c -2.673,0 -5.261,0.55 -7.692,1.634 l -12.822,5.685 12.39,-13.209 c 3.22,-3.511 4.993,-8.071 4.993,-12.839 0,-2.67 -0.548,-5.257 -1.629,-7.692 l -5.84,-13.163 13.365,12.731 z"/>
      <path id="path38" transform="translate(499.3381,404.2974)" style="fill:#435851 icc-color(sRGB IEC61966-2 0.1, 0.26298523, 0.34498596, 0.31799316);fill-opacity:1;fill-rule:nonzero;stroke:none" d="M 0,0 63.137,-0.242 64.006,-0.261 55.302,-19.882 9.264,-19.82 C 5.355,-13.618 2.241,-6.954 0,0 m 55.875,-19.883 -10e-4,0 20.858,19.873 c 6.113,5.607 14.048,8.695 22.343,8.695 4.416,0 8.709,-0.864 12.769,-2.57 L 87.864,-16.523 48.928,-53.822 c -6.313,2.725 -12.307,6.2 -17.827,10.338 l 24.774,23.601 z m 32.611,2.705 24.971,23.574 -0.62,0.275 c -4.361,1.936 -8.991,2.917 -13.762,2.917 -8.524,0 -16.677,-3.172 -22.957,-8.935 L 57.554,-17.034 65.382,0.612 -1.235,0.908 -1.05,0.318 c 2.302,-7.32 5.56,-14.329 9.683,-20.832 l 0.133,-0.209 44.853,-0.06 -23.912,-22.78 0.423,-0.321 c 5.776,-4.384 12.073,-8.046 18.717,-10.887 l 0.275,-0.117 39.364,37.71 z"/>
      <path id="path39" transform="translate(537.9451,506.9082)" style="fill:#435851 icc-color(sRGB IEC61966-2 0.1, 0.26298523, 0.34498596, 0.31799316);fill-opacity:1;fill-rule:nonzero;stroke:none" d="M 0,0 C 6.214,3.729 12.872,6.673 19.803,8.759 L 19.584,-52.92 19.566,-53.788 -0.053,-45.082 0,0 Z m -23.417,-20.405 22.983,-24.508 0,0 20.252,-21.597 c 5.607,-6.113 8.696,-14.05 8.696,-22.347 0,-4.417 -0.865,-8.709 -2.57,-12.769 l -22.635,23.98 -37.615,39.933 c 2.935,6.158 6.597,11.978 10.889,17.308 M 26.5,-102.619 c 1.936,4.36 2.917,8.99 2.917,13.762 0,8.525 -3.173,16.679 -8.935,22.96 l -17.206,18.35 17.165,-7.618 0.27,65.134 -0.582,-0.17 C 12.834,7.658 5.831,4.578 -0.685,0.642 l -0.218,-0.131 -0.052,-43.547 -22.511,24.004 -0.326,-0.4 c -4.545,-5.576 -8.401,-11.69 -11.463,-18.173 l -0.132,-0.278 61.611,-65.357 0.276,0.621 z"/>
      <path id="path40" transform="translate(615.3005,478.5723)" style="fill:#435851 icc-color(sRGB IEC61966-2 0.1, 0.26298523, 0.34498596, 0.31799316);fill-opacity:1;fill-rule:nonzero;stroke:none" d="m 0,0 42.21,-0.054 c 3.94,-6.193 7.087,-12.856 9.359,-19.814 l -59.404,0.23 -0.869,0.02 L 0,0 Z m 5.37,32.448 c 6.196,-2.923 12.058,-6.58 17.433,-10.879 L 0.155,0.349 0.156,0.352 -21.429,-19.869 c -6.112,-5.609 -14.048,-8.698 -22.346,-8.698 -4.415,0 -8.706,0.864 -12.767,2.569 L 5.37,32.448 Z m -26.186,-52.981 18.34,17.18 -7.604,-17.138 62.889,-0.285 -0.188,0.591 c -2.334,7.326 -5.625,14.333 -9.783,20.827 L 42.706,0.85 2.066,0.901 24.179,21.62 23.775,21.946 c -5.621,4.551 -11.778,8.403 -18.3,11.45 l -0.279,0.131 -63.351,-59.805 0.62,-0.275 c 4.361,-1.936 8.99,-2.918 13.76,-2.918 8.526,0 16.68,3.175 22.959,8.938"/>
      <path id="path41" transform="translate(612.1819,422.5908)" style="fill:#435851 icc-color(sRGB IEC61966-2 0.1, 0.26298523, 0.34498596, 0.31799316);fill-opacity:1;fill-rule:nonzero;stroke:none" d="m 0,0 c -5.61,6.112 -8.7,14.05 -8.7,22.351 0,4.416 0.864,8.707 2.569,12.767 L 16.505,11.138 51.77,-26.304 C 49.02,-32.628 45.526,-38.622 41.379,-44.131 L 19.869,-21.19 0,0 Z M 19.869,-21.427 19.84,-64.505 C 13.674,-68.629 7.015,-71.953 0.034,-74.393 l 0.195,60.801 0.018,0.868 19.622,-8.703 z M -0.274,-75.455 c 7.35,2.509 14.355,5.985 20.818,10.334 l 0.199,0.134 0.028,41.514 20.68,-22.057 0.324,0.425 c 4.394,5.763 8.076,12.06 10.942,18.716 l 0.117,0.272 L 17.163,11.757 -6.411,36.73 -6.687,36.11 c -1.935,-4.36 -2.917,-8.989 -2.917,-13.759 0,-8.528 3.174,-16.683 8.941,-22.966 l 17.205,-18.347 -17.17,7.615 -0.247,-64.313 0.601,0.205 z"/>
      <path id="path42" transform="translate(30.1672,329.4766)" style="fill:#435851 icc-color(sRGB IEC61966-2 0.1, 0.26298523, 0.34498596, 0.31799316);fill-opacity:1;fill-rule:nonzero;stroke:none" d="m 0,0 -12.817,5.686 c -2.438,1.08 -5.028,1.628 -7.697,1.628 -3.218,0 -6.405,-0.824 -9.214,-2.383 l -0.439,0.79 c 2.943,1.633 6.281,2.496 9.653,2.496 2.796,0 5.509,-0.573 8.063,-1.705 l 8.743,-3.878 -9.339,9.961 c -3.38,3.68 -5.239,8.457 -5.239,13.453 0,2.797 0.576,5.508 1.711,8.059 l 3.869,8.729 -9.953,-9.326 c -2.078,-1.906 -4.481,-3.323 -7.145,-4.214 l -0.286,0.858 c 2.542,0.849 4.836,2.202 6.817,4.018 l 13.197,12.366 -5.673,-12.798 c -1.084,-2.435 -1.634,-5.023 -1.634,-7.692 0,-4.769 1.776,-9.328 4.999,-12.839 L 0,0 Z"/>
      <path id="path43" transform="translate(650.4636,319.0664)" style="fill:#435851 icc-color(sRGB IEC61966-2 0.1, 0.26298523, 0.34498596, 0.31799316);fill-opacity:1;fill-rule:nonzero;stroke:none" d="m 0,0 5.841,13.164 c 1.08,2.434 1.629,5.021 1.629,7.691 0,4.768 -1.774,9.327 -4.994,12.839 L -9.914,46.903 2.909,41.218 c 4.295,-1.915 9.233,-2.152 13.713,-0.654 l 0.286,-0.857 c -2.037,-0.681 -4.159,-1.026 -6.307,-1.026 -2.802,0 -5.513,0.575 -8.059,1.711 l -8.747,3.878 9.344,-9.961 c 3.377,-3.683 5.234,-8.46 5.234,-13.454 0,-2.797 -0.574,-5.508 -1.706,-8.058 L 2.672,3.793 12.748,13.391 c 1.156,1.062 2.432,1.983 3.797,2.74 l 0.439,-0.79 C 15.68,14.618 14.463,13.74 13.365,12.731 L 0,0 Z"/>
      <path id="path44" transform="translate(2.0447,230.832)" style="fill:#435851 icc-color(sRGB IEC61966-2 0.1, 0.26298523, 0.34498596, 0.31799316);fill-opacity:1;fill-rule:nonzero;stroke:none" d="M 0,0 63.137,-0.242 64.006,-0.261 55.302,-19.882 9.264,-19.82 C 5.355,-13.618 2.241,-6.954 0,0 m 54.883,-20.828 -0.001,0 21.85,20.818 c 6.113,5.607 14.047,8.695 22.343,8.695 4.416,0 8.709,-0.864 12.769,-2.57 L 87.864,-16.523 48.928,-53.822 c -6.313,2.725 -12.307,6.2 -17.827,10.338 l 23.782,22.656 z m 33.604,3.65 24.97,23.574 -0.62,0.275 c -4.36,1.936 -8.991,2.917 -13.762,2.917 -8.524,0 -16.677,-3.172 -22.957,-8.935 L 57.554,-17.034 65.382,0.612 -1.235,0.908 -1.05,0.318 c 2.302,-7.32 5.56,-14.329 9.683,-20.832 l 0.133,-0.21 44.853,-0.059 -23.911,-22.78 0.423,-0.321 c 5.775,-4.383 12.072,-8.046 18.716,-10.887 l 0.275,-0.117 39.365,37.71 z"/>
      <path id="path45" transform="translate(40.6521,333.4429)" style="fill:#435851 icc-color(sRGB IEC61966-2 0.1, 0.26298523, 0.34498596, 0.31799316);fill-opacity:1;fill-rule:nonzero;stroke:none" d="M 0,0 C 6.215,3.729 12.873,6.673 19.803,8.758 L 19.584,-52.92 19.566,-53.788 -0.054,-45.082 0,0 Z m -23.418,-20.405 23.364,-24.913 0,0 19.872,-21.192 c 5.607,-6.113 8.696,-14.05 8.696,-22.347 0,-4.417 -0.865,-8.709 -2.57,-12.769 l -22.636,23.98 -37.614,39.933 c 2.934,6.158 6.595,11.977 10.888,17.308 M 26.5,-102.619 c 1.936,4.36 2.917,8.99 2.917,13.762 0,8.525 -3.173,16.679 -8.935,22.96 L 3.275,-47.547 20.442,-55.165 20.711,9.969 20.13,9.798 C 12.835,7.659 5.832,4.578 -0.685,0.642 l -0.218,-0.131 -0.052,-43.547 -22.512,24.004 -0.326,-0.4 c -4.545,-5.577 -8.401,-11.691 -11.462,-18.173 l -0.132,-0.278 61.611,-65.357 0.276,0.621 z"/>
      <path id="path46" transform="translate(118.0071,305.1069)" style="fill:#435851 icc-color(sRGB IEC61966-2 0.1, 0.26298523, 0.34498596, 0.31799316);fill-opacity:1;fill-rule:nonzero;stroke:none" d="m 0,0 42.21,-0.054 c 3.94,-6.193 7.087,-12.856 9.359,-19.814 l -59.403,0.23 -0.87,0.02 L 0,0 Z m 5.37,32.448 c 6.196,-2.923 12.058,-6.58 17.433,-10.879 L 0.154,0.348 0.156,0.352 -21.429,-19.869 c -6.112,-5.609 -14.048,-8.698 -22.346,-8.698 -4.415,0 -8.706,0.864 -12.767,2.569 L 5.37,32.448 Z m -26.186,-52.981 18.34,17.18 -7.604,-17.138 62.889,-0.285 -0.188,0.591 c -2.334,7.326 -5.625,14.333 -9.783,20.827 L 42.706,0.85 2.067,0.901 24.179,21.62 23.775,21.946 c -5.621,4.551 -11.778,8.403 -18.3,11.45 l -0.279,0.131 -63.351,-59.805 0.62,-0.275 c 4.361,-1.936 8.99,-2.918 13.76,-2.918 8.526,0 16.68,3.175 22.959,8.938"/>
      <path id="path47" transform="translate(134.7581,227.9351)" style="fill:#435851 icc-color(sRGB IEC61966-2 0.1, 0.26298523, 0.34498596, 0.31799316);fill-opacity:1;fill-rule:nonzero;stroke:none" d="m 0,0 -19.869,21.19 c -5.611,6.112 -8.701,14.05 -8.701,22.352 0,4.414 0.864,8.706 2.57,12.766 L -3.364,32.328 31.9,-5.113 C 29.152,-11.436 25.658,-17.43 21.51,-22.941 L 0,0 Z m 0,-0.236 -0.03,-43.078 c -6.164,-4.124 -12.823,-7.448 -19.805,-9.889 L -19.64,7.599 -19.622,8.466 0,-0.236 Z m -20.144,-54.029 c 7.352,2.51 14.356,5.987 20.818,10.334 l 0.2,0.135 0.028,41.513 20.68,-22.056 0.324,0.424 c 4.395,5.766 8.076,12.062 10.942,18.716 l 0.117,0.273 -35.671,37.874 -23.574,24.973 -0.276,-0.62 c -1.936,-4.361 -2.917,-8.99 -2.917,-13.759 0,-8.529 3.174,-16.684 8.941,-22.966 l 17.204,-18.348 -17.17,7.615 -0.246,-64.313 0.6,0.205 z"/>
      <path id="path48" transform="translate(155.7117,185.9932)" style="fill:#435851 icc-color(sRGB IEC61966-2 0.1, 0.26298523, 0.34498596, 0.31799316);fill-opacity:1;fill-rule:nonzero;stroke:none" d="m 0,0 c 2.546,-1.136 5.258,-1.711 8.059,-1.711 4.99,0 9.767,1.859 13.453,5.239 l 9.953,9.326 -3.869,-8.729 c -1.136,-2.552 -1.712,-5.263 -1.712,-8.059 0,-4.996 1.86,-9.773 5.24,-13.453 l 9.339,-9.961 -8.743,3.878 c -2.554,1.132 -5.267,1.705 -8.063,1.705 -4.996,0 -9.771,-1.857 -13.45,-5.236 l -10.077,-9.598 3.995,9.003 c 1.133,2.551 1.707,5.262 1.707,8.059 0,4.995 -1.858,9.771 -5.234,13.454 L -8.746,3.878 0,0 Z m 10.824,-27.661 c 3.506,3.22 8.064,4.993 12.833,4.993 2.669,0 5.259,-0.548 7.697,-1.628 l 12.817,-5.686 -12.385,13.21 c -3.223,3.51 -4.998,8.069 -4.998,12.838 0,2.668 0.549,5.256 1.634,7.692 L 34.095,16.556 20.898,4.19 C 17.382,0.967 12.823,-0.808 8.059,-0.808 c -2.673,0 -5.261,0.55 -7.692,1.634 l -12.822,5.685 12.39,-13.209 c 3.22,-3.511 4.993,-8.072 4.993,-12.839 0,-2.67 -0.548,-5.257 -1.629,-7.692 l -5.841,-13.163 13.366,12.731 z"/>
      <path id="path49" transform="translate(167.8093,230.832)" style="fill:#435851 icc-color(sRGB IEC61966-2 0.1, 0.26298523, 0.34498596, 0.31799316);fill-opacity:1;fill-rule:nonzero;stroke:none" d="M 0,0 63.137,-0.242 64.006,-0.261 55.302,-19.882 9.264,-19.82 C 5.355,-13.618 2.241,-6.954 0,0 m 55.875,-19.883 -10e-4,0 20.858,19.873 c 6.113,5.607 14.047,8.695 22.342,8.695 4.417,0 8.709,-0.864 12.77,-2.57 L 87.864,-16.523 48.928,-53.822 c -6.313,2.725 -12.307,6.2 -17.827,10.338 l 24.774,23.601 z m 32.611,2.705 24.971,23.574 -0.62,0.275 c -4.361,1.936 -8.991,2.917 -13.763,2.917 -8.523,0 -16.676,-3.172 -22.956,-8.935 L 57.554,-17.034 65.382,0.612 -1.235,0.908 -1.05,0.318 c 2.302,-7.32 5.56,-14.329 9.683,-20.832 l 0.133,-0.21 44.853,-0.059 -23.912,-22.78 0.423,-0.321 c 5.776,-4.384 12.073,-8.046 18.717,-10.887 l 0.275,-0.117 39.364,37.71 z"/>
      <path id="path50" transform="translate(206.4163,333.4429)" style="fill:#435851 icc-color(sRGB IEC61966-2 0.1, 0.26298523, 0.34498596, 0.31799316);fill-opacity:1;fill-rule:nonzero;stroke:none" d="M 0,0 C 6.216,3.729 12.874,6.674 19.803,8.758 L 19.584,-52.92 19.566,-53.788 -0.053,-45.082 0,0 Z m -23.418,-20.405 22.984,-24.508 0,0 20.252,-21.597 c 5.607,-6.113 8.696,-14.05 8.696,-22.347 0,-4.417 -0.865,-8.709 -2.57,-12.769 l -22.635,23.98 -37.615,39.933 c 2.935,6.158 6.596,11.977 10.888,17.308 M 26.5,-102.619 c 1.936,4.36 2.917,8.99 2.917,13.762 0,8.525 -3.173,16.679 -8.935,22.96 L 3.276,-47.547 20.441,-55.165 20.711,9.969 20.13,9.798 C 12.836,7.659 5.833,4.579 -0.685,0.642 l -0.218,-0.131 -0.052,-43.547 -22.512,24.004 -0.326,-0.4 c -4.544,-5.577 -8.401,-11.691 -11.462,-18.173 l -0.132,-0.278 61.611,-65.357 0.276,0.621 z"/>
      <path id="path51" transform="translate(283.7712,305.1069)" style="fill:#435851 icc-color(sRGB IEC61966-2 0.1, 0.26298523, 0.34498596, 0.31799316);fill-opacity:1;fill-rule:nonzero;stroke:none" d="m 0,0 42.21,-0.054 c 3.94,-6.193 7.087,-12.856 9.359,-19.814 l -59.403,0.23 -0.87,0.02 L 0,0 Z M 5.37,32.448 C 11.567,29.525 17.429,25.867 22.803,21.569 L 0.154,0.348 0.156,0.352 -21.428,-19.868 c -6.112,-5.61 -14.048,-8.699 -22.347,-8.699 -4.414,0 -8.706,0.864 -12.767,2.569 L 5.37,32.448 Z m -26.185,-52.981 18.339,17.18 -7.604,-17.138 62.89,-0.285 -0.189,0.591 c -2.334,7.326 -5.625,14.332 -9.782,20.827 L 42.706,0.85 2.067,0.901 24.179,21.62 23.776,21.946 c -5.621,4.55 -11.778,8.403 -18.301,11.45 l -0.278,0.131 -63.352,-59.805 0.62,-0.275 c 4.362,-1.936 8.991,-2.918 13.76,-2.918 8.526,0 16.68,3.175 22.96,8.938"/>
      <path id="path52" transform="translate(280.6531,249.1255)" style="fill:#435851 icc-color(sRGB IEC61966-2 0.1, 0.26298523, 0.34498596, 0.31799316);fill-opacity:1;fill-rule:nonzero;stroke:none" d="m 0,0 c -5.61,6.112 -8.7,14.05 -8.7,22.351 0,4.416 0.864,8.707 2.569,12.767 L 16.505,11.137 51.77,-26.304 C 49.02,-32.628 45.526,-38.622 41.379,-44.131 L 19.869,-21.19 0,0 Z M 19.869,-21.427 19.84,-64.505 C 13.675,-68.628 7.016,-71.953 0.034,-74.393 l 0.195,60.801 0.018,0.868 19.622,-8.703 z M -0.274,-75.456 c 7.351,2.51 14.355,5.987 20.818,10.335 l 0.199,0.134 0.028,41.514 20.68,-22.057 0.324,0.425 c 4.394,5.763 8.076,12.06 10.942,18.716 l 0.117,0.272 L 17.163,11.757 -6.411,36.73 -6.687,36.11 c -1.935,-4.36 -2.917,-8.989 -2.917,-13.759 0,-8.528 3.174,-16.683 8.941,-22.966 l 17.205,-18.347 -17.17,7.615 -0.247,-64.313 0.601,0.204 z"/>
      <path id="path53" transform="translate(321.4758,185.9932)" style="fill:#435851 icc-color(sRGB IEC61966-2 0.1, 0.26298523, 0.34498596, 0.31799316);fill-opacity:1;fill-rule:nonzero;stroke:none" d="m 0,0 c 2.547,-1.136 5.258,-1.711 8.059,-1.711 4.991,0 9.767,1.859 13.454,5.239 l 9.952,9.326 -3.869,-8.729 c -1.136,-2.552 -1.711,-5.263 -1.711,-8.059 0,-4.996 1.859,-9.773 5.239,-13.453 l 9.339,-9.961 -8.742,3.878 c -2.555,1.132 -5.268,1.705 -8.064,1.705 -4.996,0 -9.77,-1.857 -13.45,-5.236 l -10.076,-9.598 3.995,9.003 c 1.132,2.551 1.706,5.262 1.706,8.059 0,4.994 -1.857,9.771 -5.234,13.454 L -8.746,3.878 0,0 Z m 10.824,-27.661 c 3.507,3.22 8.064,4.993 12.833,4.993 2.669,0 5.259,-0.548 7.697,-1.628 l 12.817,-5.686 -12.384,13.21 c -3.224,3.51 -4.999,8.069 -4.999,12.838 0,2.668 0.55,5.256 1.634,7.692 L 34.095,16.557 20.898,4.19 C 17.383,0.967 12.823,-0.808 8.059,-0.808 c -2.673,0 -5.261,0.55 -7.692,1.634 l -12.822,5.685 12.39,-13.209 c 3.22,-3.512 4.994,-8.072 4.994,-12.839 0,-2.67 -0.549,-5.257 -1.629,-7.692 l -5.841,-13.163 13.365,12.731 z"/>
      <path id="path54" transform="translate(333.574,230.832)" style="fill:#435851 icc-color(sRGB IEC61966-2 0.1, 0.26298523, 0.34498596, 0.31799316);fill-opacity:1;fill-rule:nonzero;stroke:none" d="M 0,0 63.137,-0.242 64.006,-0.261 55.302,-19.882 9.263,-19.82 C 5.355,-13.618 2.24,-6.954 0,0 m 55.875,-19.883 -10e-4,0 20.858,19.873 c 6.112,5.607 14.047,8.695 22.342,8.695 4.417,0 8.709,-0.864 12.77,-2.57 L 87.864,-16.523 48.927,-53.822 c -6.313,2.725 -12.306,6.2 -17.826,10.338 l 24.774,23.601 z m 32.611,2.705 24.971,23.574 -0.621,0.275 c -4.36,1.936 -8.99,2.917 -13.762,2.917 -8.523,0 -16.676,-3.172 -22.956,-8.935 L 57.554,-17.034 65.382,0.612 -1.235,0.908 -1.05,0.318 C 1.251,-7.001 4.509,-14.01 8.632,-20.514 l 0.134,-0.21 44.853,-0.059 -23.912,-22.78 0.423,-0.321 c 5.776,-4.384 12.073,-8.046 18.716,-10.887 l 0.275,-0.117 39.365,37.71 z"/>
      <path id="path55" transform="translate(372.1809,333.4429)" style="fill:#435851 icc-color(sRGB IEC61966-2 0.1, 0.26298523, 0.34498596, 0.31799316);fill-opacity:1;fill-rule:nonzero;stroke:none" d="M 0,0 C 6.215,3.729 12.873,6.673 19.803,8.758 L 19.584,-52.92 19.566,-53.788 -0.054,-45.082 0,0 Z m -23.418,-20.405 23.364,-24.913 0,0 19.872,-21.192 c 5.607,-6.113 8.696,-14.05 8.696,-22.347 0,-4.417 -0.865,-8.709 -2.57,-12.769 l -22.635,23.98 -37.615,39.933 c 2.934,6.158 6.595,11.977 10.888,17.308 M 26.5,-102.619 c 1.936,4.36 2.917,8.99 2.917,13.762 0,8.525 -3.173,16.679 -8.935,22.96 L 3.275,-47.547 20.442,-55.165 20.711,9.969 20.13,9.798 C 12.835,7.659 5.832,4.578 -0.685,0.642 l -0.218,-0.131 -0.052,-43.547 -22.512,24.004 -0.326,-0.4 c -4.545,-5.577 -8.401,-11.691 -11.462,-18.173 l -0.132,-0.278 61.611,-65.357 0.276,0.621 z"/>
      <path id="path56" transform="translate(449.5359,305.1069)" style="fill:#435851 icc-color(sRGB IEC61966-2 0.1, 0.26298523, 0.34498596, 0.31799316);fill-opacity:1;fill-rule:nonzero;stroke:none" d="m 0,0 42.21,-0.054 c 3.94,-6.193 7.087,-12.856 9.359,-19.814 l -59.403,0.23 -0.87,0.02 L 0,0 Z m 5.37,32.448 c 6.196,-2.923 12.058,-6.58 17.433,-10.879 L 0.154,0.348 0.156,0.352 -21.428,-19.868 c -6.112,-5.61 -14.049,-8.699 -22.347,-8.699 -4.415,0 -8.706,0.864 -12.767,2.569 L 5.37,32.448 Z m -26.185,-52.981 18.339,17.18 -7.604,-17.138 62.889,-0.285 -0.188,0.591 c -2.334,7.326 -5.625,14.333 -9.783,20.827 L 42.706,0.85 2.067,0.901 24.179,21.62 23.775,21.946 c -5.621,4.551 -11.778,8.403 -18.3,11.45 l -0.279,0.131 -63.351,-59.805 0.62,-0.275 c 4.361,-1.936 8.99,-2.918 13.76,-2.918 8.526,0 16.68,3.175 22.96,8.938"/>
      <path id="path57" transform="translate(446.4177,249.1255)" style="fill:#435851 icc-color(sRGB IEC61966-2 0.1, 0.26298523, 0.34498596, 0.31799316);fill-opacity:1;fill-rule:nonzero;stroke:none" d="m 0,0 c -5.611,6.112 -8.701,14.049 -8.701,22.351 0,4.415 0.865,8.706 2.57,12.767 L 16.505,11.137 51.769,-26.304 C 49.021,-32.626 45.527,-38.62 41.379,-44.131 L 19.869,-21.19 0,0 Z m 19.869,-21.427 -0.03,-43.078 C 13.675,-68.628 7.016,-71.953 0.034,-74.393 l 0.195,60.801 0.018,0.868 19.622,-8.703 z M -0.274,-75.456 c 7.352,2.51 14.356,5.987 20.817,10.335 l 0.2,0.134 0.028,41.514 20.68,-22.057 0.324,0.425 c 4.395,5.765 8.077,12.062 10.942,18.716 l 0.117,0.272 L 17.163,11.757 -6.411,36.73 -6.687,36.11 c -1.936,-4.36 -2.917,-8.989 -2.917,-13.759 0,-8.528 3.174,-16.683 8.941,-22.966 l 17.205,-18.347 -17.171,7.615 -0.246,-64.313 0.601,0.204 z"/>
      <path id="path58" transform="translate(487.2405,185.9932)" style="fill:#435851 icc-color(sRGB IEC61966-2 0.1, 0.26298523, 0.34498596, 0.31799316);fill-opacity:1;fill-rule:nonzero;stroke:none" d="m 0,0 c 2.547,-1.136 5.258,-1.711 8.059,-1.711 4.99,0 9.767,1.859 13.453,5.239 l 9.953,9.326 -3.869,-8.729 c -1.136,-2.552 -1.712,-5.263 -1.712,-8.059 0,-4.996 1.86,-9.773 5.24,-13.453 l 9.339,-9.961 -8.743,3.878 c -2.554,1.132 -5.267,1.705 -8.063,1.705 -4.996,0 -9.771,-1.857 -13.45,-5.236 l -10.076,-9.598 3.994,9.003 c 1.133,2.551 1.707,5.262 1.707,8.059 0,4.995 -1.858,9.771 -5.234,13.454 L -8.746,3.878 0,0 Z m 10.824,-27.661 c 3.506,3.22 8.064,4.993 12.833,4.993 2.669,0 5.259,-0.548 7.697,-1.628 l 12.817,-5.686 -12.385,13.21 c -3.223,3.51 -4.998,8.069 -4.998,12.838 0,2.668 0.549,5.256 1.634,7.692 L 34.095,16.556 20.898,4.19 C 17.382,0.967 12.823,-0.808 8.059,-0.808 c -2.673,0 -5.261,0.55 -7.692,1.634 l -12.822,5.685 12.39,-13.209 c 3.22,-3.511 4.993,-8.072 4.993,-12.839 0,-2.67 -0.548,-5.257 -1.629,-7.692 l -5.84,-13.163 13.365,12.731 z"/>
      <path id="path59" transform="translate(499.3381,230.832)" style="fill:#435851 icc-color(sRGB IEC61966-2 0.1, 0.26298523, 0.34498596, 0.31799316);fill-opacity:1;fill-rule:nonzero;stroke:none" d="M 0,0 63.137,-0.242 64.006,-0.261 55.302,-19.882 9.264,-19.82 C 5.355,-13.618 2.241,-6.954 0,0 m 55.875,-19.883 -10e-4,0 20.858,19.873 c 6.113,5.607 14.048,8.695 22.343,8.695 4.416,0 8.709,-0.864 12.769,-2.57 L 87.864,-16.523 48.928,-53.822 c -6.313,2.725 -12.307,6.2 -17.827,10.338 l 24.774,23.601 z m 32.611,2.705 24.971,23.574 -0.62,0.275 c -4.361,1.936 -8.991,2.917 -13.762,2.917 -8.524,0 -16.677,-3.172 -22.957,-8.935 L 57.554,-17.034 65.382,0.612 -1.235,0.908 -1.05,0.318 c 2.302,-7.32 5.56,-14.329 9.683,-20.832 l 0.133,-0.21 44.853,-0.059 -23.912,-22.78 0.423,-0.321 c 5.776,-4.384 12.073,-8.046 18.717,-10.887 l 0.275,-0.117 39.364,37.71 z"/>
      <path id="path60" transform="translate(537.9451,333.4429)" style="fill:#435851 icc-color(sRGB IEC61966-2 0.1, 0.26298523, 0.34498596, 0.31799316);fill-opacity:1;fill-rule:nonzero;stroke:none" d="M 0,0 C 6.216,3.729 12.874,6.674 19.803,8.758 L 19.584,-52.92 19.566,-53.788 -0.053,-45.082 0,0 Z m -23.417,-20.405 22.983,-24.508 0,0 20.252,-21.597 c 5.607,-6.113 8.696,-14.05 8.696,-22.347 0,-4.417 -0.865,-8.709 -2.57,-12.769 l -22.635,23.98 -37.615,39.933 c 2.935,6.158 6.597,11.978 10.889,17.308 M 26.5,-102.619 c 1.936,4.36 2.917,8.99 2.917,13.762 0,8.525 -3.173,16.679 -8.935,22.96 L 3.276,-47.547 20.441,-55.165 20.711,9.969 20.13,9.798 C 12.836,7.659 5.833,4.579 -0.685,0.642 l -0.218,-0.131 -0.052,-43.547 -22.511,24.004 -0.326,-0.4 c -4.545,-5.576 -8.401,-11.69 -11.463,-18.173 l -0.132,-0.278 61.611,-65.357 0.276,0.621 z"/>
      <path id="path61" transform="translate(615.3005,305.1069)" style="fill:#435851 icc-color(sRGB IEC61966-2 0.1, 0.26298523, 0.34498596, 0.31799316);fill-opacity:1;fill-rule:nonzero;stroke:none" d="m 0,0 42.21,-0.054 c 3.94,-6.193 7.087,-12.856 9.359,-19.814 l -59.404,0.23 -0.869,0.02 L 0,0 Z m 5.37,32.448 c 6.196,-2.923 12.058,-6.58 17.433,-10.879 L 0.155,0.349 0.156,0.352 -21.429,-19.869 c -6.112,-5.609 -14.048,-8.698 -22.346,-8.698 -4.415,0 -8.706,0.864 -12.767,2.569 L 5.37,32.448 Z m -26.186,-52.981 18.34,17.18 -7.604,-17.138 62.889,-0.285 -0.188,0.591 c -2.334,7.326 -5.625,14.333 -9.783,20.827 L 42.706,0.85 2.066,0.901 24.179,21.62 23.775,21.946 c -5.621,4.551 -11.778,8.403 -18.3,11.45 l -0.279,0.131 -63.351,-59.805 0.62,-0.275 c 4.361,-1.936 8.99,-2.918 13.76,-2.918 8.526,0 16.68,3.175 22.959,8.938"/>
      <path id="path62" transform="translate(612.1819,249.1255)" style="fill:#435851 icc-color(sRGB IEC61966-2 0.1, 0.26298523, 0.34498596, 0.31799316);fill-opacity:1;fill-rule:nonzero;stroke:none" d="m 0,0 c -5.61,6.112 -8.7,14.05 -8.7,22.351 0,4.416 0.864,8.707 2.569,12.767 L 16.505,11.137 51.77,-26.304 C 49.02,-32.628 45.526,-38.622 41.379,-44.131 L 19.869,-21.19 0,0 Z M 19.869,-21.427 19.84,-64.505 C 13.675,-68.628 7.016,-71.953 0.034,-74.393 l 0.195,60.801 0.018,0.868 19.622,-8.703 z M -0.274,-75.456 c 7.351,2.51 14.355,5.987 20.818,10.335 l 0.199,0.134 0.028,41.514 20.68,-22.057 0.324,0.425 c 4.394,5.763 8.076,12.06 10.942,18.716 l 0.117,0.272 L 17.163,11.757 -6.411,36.73 -6.687,36.11 c -1.935,-4.36 -2.917,-8.989 -2.917,-13.759 0,-8.528 3.174,-16.683 8.941,-22.966 l 17.205,-18.347 -17.17,7.615 -0.247,-64.313 0.601,0.204 z"/>
      <path id="path63" transform="translate(30.1672,156.0112)" style="fill:#435851 icc-color(sRGB IEC61966-2 0.1, 0.26298523, 0.34498596, 0.31799316);fill-opacity:1;fill-rule:nonzero;stroke:none" d="m 0,0 -12.817,5.686 c -2.438,1.08 -5.028,1.628 -7.697,1.628 -3.218,0 -6.405,-0.824 -9.214,-2.383 l -0.439,0.79 c 2.943,1.633 6.281,2.496 9.653,2.496 2.796,0 5.509,-0.573 8.063,-1.705 l 8.743,-3.878 -9.339,9.961 c -3.38,3.68 -5.239,8.457 -5.239,13.453 0,2.797 0.576,5.508 1.711,8.059 l 3.869,8.729 -9.953,-9.326 c -2.078,-1.906 -4.481,-3.323 -7.145,-4.214 l -0.286,0.858 c 2.542,0.849 4.836,2.202 6.817,4.018 l 13.197,12.366 -5.673,-12.798 c -1.084,-2.435 -1.634,-5.023 -1.634,-7.692 0,-4.769 1.776,-9.329 4.999,-12.839 L 0,0 Z"/>
      <path id="path64" transform="translate(650.4636,145.6011)" style="fill:#435851 icc-color(sRGB IEC61966-2 0.1, 0.26298523, 0.34498596, 0.31799316);fill-opacity:1;fill-rule:nonzero;stroke:none" d="m 0,0 5.841,13.163 c 1.08,2.435 1.629,5.022 1.629,7.692 0,4.768 -1.774,9.327 -4.994,12.839 L -9.914,46.903 2.909,41.218 c 4.295,-1.916 9.233,-2.152 13.713,-0.654 l 0.286,-0.857 c -2.037,-0.681 -4.159,-1.026 -6.307,-1.026 -2.802,0 -5.513,0.575 -8.059,1.711 l -8.747,3.878 9.344,-9.961 c 3.377,-3.684 5.234,-8.46 5.234,-13.454 0,-2.797 -0.574,-5.508 -1.706,-8.059 L 2.672,3.793 12.748,13.391 c 1.156,1.062 2.432,1.983 3.797,2.74 l 0.439,-0.79 C 15.68,14.618 14.463,13.74 13.365,12.731 L 0,0 Z"/>
      <path id="path65" transform="translate(2.0447,57.3667)" style="fill:#435851 icc-color(sRGB IEC61966-2 0.1, 0.26298523, 0.34498596, 0.31799316);fill-opacity:1;fill-rule:nonzero;stroke:none" d="M 0,0 63.137,-0.242 64.006,-0.261 55.302,-19.882 9.264,-19.82 C 5.355,-13.618 2.241,-6.954 0,0 m 54.883,-20.828 -0.001,0 21.85,20.818 c 6.113,5.607 14.047,8.695 22.343,8.695 4.416,0 8.709,-0.864 12.769,-2.57 L 87.864,-16.523 48.928,-53.822 c -6.313,2.725 -12.307,6.2 -17.827,10.338 l 23.782,22.656 z m 33.604,3.65 24.97,23.574 -0.62,0.275 c -4.36,1.936 -8.991,2.917 -13.762,2.917 -8.524,0 -16.677,-3.172 -22.957,-8.935 L 57.554,-17.034 65.382,0.612 -1.235,0.908 -1.05,0.318 c 2.302,-7.32 5.56,-14.329 9.683,-20.832 l 0.133,-0.21 44.853,-0.059 -23.911,-22.78 0.423,-0.321 c 5.775,-4.383 12.072,-8.046 18.716,-10.887 l 0.275,-0.117 39.365,37.71 z"/>
      <path id="path66" transform="translate(40.6521,159.9771)" style="fill:#435851 icc-color(sRGB IEC61966-2 0.1, 0.26298523, 0.34498596, 0.31799316);fill-opacity:1;fill-rule:nonzero;stroke:none" d="m 0,0 c 6.215,3.729 12.873,6.674 19.803,8.759 l -0.219,-61.678 -0.018,-0.869 -19.62,8.707 L 0,0 Z m -23.418,-20.404 23.364,-24.914 0,10e-4 19.872,-21.193 c 5.607,-6.113 8.696,-14.049 8.696,-22.346 0,-4.418 -0.865,-8.71 -2.57,-12.769 l -22.636,23.979 -37.614,39.934 c 2.934,6.157 6.595,11.976 10.888,17.308 M 26.5,-102.619 c 1.936,4.36 2.917,8.991 2.917,13.763 0,8.525 -3.173,16.679 -8.935,22.959 L 3.276,-47.547 20.442,-55.165 20.711,9.969 20.13,9.799 C 12.834,7.659 5.832,4.578 -0.685,0.642 l -0.218,-0.131 -0.052,-43.547 -22.512,24.005 -0.326,-0.401 c -4.545,-5.577 -8.402,-11.692 -11.462,-18.172 l -0.132,-0.279 61.611,-65.356 0.276,0.62 z"/>
      <path id="path67" transform="translate(118.0071,131.6416)" style="fill:#435851 icc-color(sRGB IEC61966-2 0.1, 0.26298523, 0.34498596, 0.31799316);fill-opacity:1;fill-rule:nonzero;stroke:none" d="m 0,0 42.21,-0.054 c 3.94,-6.193 7.087,-12.856 9.359,-19.814 l -59.403,0.23 -0.87,0.02 L 0,0 Z m 5.37,32.448 c 6.196,-2.923 12.058,-6.58 17.433,-10.879 L 0.154,0.348 0.156,0.352 -21.429,-19.869 c -6.112,-5.609 -14.048,-8.698 -22.346,-8.698 -4.415,0 -8.706,0.864 -12.767,2.569 L 5.37,32.448 Z m -26.186,-52.981 18.34,17.18 -7.604,-17.138 62.889,-0.285 -0.188,0.591 c -2.334,7.326 -5.625,14.333 -9.783,20.827 L 42.706,0.85 2.067,0.901 24.179,21.62 23.775,21.946 c -5.621,4.551 -11.778,8.403 -18.3,11.45 l -0.279,0.131 -63.351,-59.805 0.621,-0.276 c 4.36,-1.935 8.99,-2.917 13.759,-2.917 8.526,0 16.68,3.174 22.959,8.938"/>
      <path id="path68" transform="translate(134.7581,54.4697)" style="fill:#435851 icc-color(sRGB IEC61966-2 0.1, 0.26298523, 0.34498596, 0.31799316);fill-opacity:1;fill-rule:nonzero;stroke:none" d="m 0,0 -19.869,21.19 c -5.611,6.112 -8.701,14.05 -8.701,22.352 0,4.414 0.864,8.706 2.57,12.766 L -3.364,32.328 31.9,-5.113 C 29.152,-11.436 25.658,-17.43 21.51,-22.941 L 0,0 Z m 0,-0.236 -0.03,-43.078 c -6.162,-4.124 -12.822,-7.448 -19.805,-9.889 L -19.64,7.599 -19.622,8.466 0,-0.236 Z m -20.144,-54.029 c 7.354,2.51 14.358,5.987 20.818,10.334 l 0.2,0.135 0.028,41.513 20.68,-22.056 0.324,0.424 c 4.395,5.766 8.076,12.062 10.942,18.716 l 0.117,0.273 -35.671,37.873 -23.574,24.974 -0.276,-0.62 c -1.936,-4.361 -2.917,-8.99 -2.917,-13.759 0,-8.529 3.174,-16.684 8.941,-22.966 l 17.204,-18.348 -17.17,7.615 -0.246,-64.313 0.6,0.205 z"/>
      <path id="path69" transform="translate(167.8093,57.3667)" style="fill:#435851 icc-color(sRGB IEC61966-2 0.1, 0.26298523, 0.34498596, 0.31799316);fill-opacity:1;fill-rule:nonzero;stroke:none" d="M 0,0 63.137,-0.242 64.006,-0.261 55.302,-19.882 9.264,-19.82 C 5.355,-13.618 2.241,-6.954 0,0 m 55.875,-19.883 -10e-4,0 20.858,19.873 c 6.113,5.607 14.047,8.695 22.342,8.695 4.417,0 8.709,-0.864 12.77,-2.57 L 87.864,-16.523 48.928,-53.822 c -6.313,2.725 -12.307,6.2 -17.827,10.338 l 24.774,23.601 z m 32.611,2.705 24.971,23.574 -0.62,0.275 c -4.361,1.936 -8.991,2.917 -13.763,2.917 -8.523,0 -16.676,-3.172 -22.956,-8.935 L 57.554,-17.034 65.382,0.612 -1.235,0.908 -1.05,0.318 c 2.302,-7.32 5.56,-14.329 9.683,-20.832 l 0.133,-0.21 44.853,-0.059 -23.912,-22.78 0.423,-0.321 c 5.776,-4.384 12.073,-8.046 18.717,-10.887 l 0.275,-0.117 39.364,37.71 z"/>
      <path id="path70" transform="translate(206.4163,159.9771)" style="fill:#435851 icc-color(sRGB IEC61966-2 0.1, 0.26298523, 0.34498596, 0.31799316);fill-opacity:1;fill-rule:nonzero;stroke:none" d="M 0,0 C 6.216,3.729 12.873,6.674 19.803,8.759 L 19.584,-52.919 19.566,-53.788 -0.053,-45.081 0,0 Z m -23.418,-20.404 22.984,-24.508 0,0 20.253,-21.599 c 5.607,-6.113 8.695,-14.048 8.695,-22.345 0,-4.418 -0.865,-8.71 -2.57,-12.769 l -22.635,23.979 -37.615,39.934 c 2.934,6.157 6.595,11.975 10.888,17.308 M 26.5,-102.619 c 1.936,4.36 2.917,8.991 2.917,13.763 0,8.525 -3.173,16.679 -8.935,22.959 l -17.206,18.35 17.165,-7.618 0.27,65.134 -0.581,-0.17 C 12.835,7.659 5.833,4.579 -0.685,0.642 l -0.218,-0.131 -0.052,-43.547 -22.512,24.005 -0.326,-0.401 c -4.545,-5.577 -8.401,-11.692 -11.462,-18.172 l -0.132,-0.279 61.611,-65.356 0.276,0.62 z"/>
      <path id="path71" transform="translate(283.7712,131.6416)" style="fill:#435851 icc-color(sRGB IEC61966-2 0.1, 0.26298523, 0.34498596, 0.31799316);fill-opacity:1;fill-rule:nonzero;stroke:none" d="m 0,0 42.21,-0.054 c 3.94,-6.193 7.087,-12.856 9.359,-19.814 l -59.403,0.23 -0.87,0.02 L 0,0 Z M 5.37,32.448 C 11.567,29.525 17.429,25.867 22.803,21.569 L 0.154,0.348 0.156,0.352 -21.428,-19.869 c -6.112,-5.609 -14.049,-8.698 -22.347,-8.698 -4.414,0 -8.706,0.864 -12.767,2.569 L 5.37,32.448 Z m -26.185,-52.981 18.339,17.18 -7.604,-17.138 62.89,-0.285 -0.189,0.591 c -2.334,7.326 -5.625,14.332 -9.782,20.827 L 42.706,0.85 2.067,0.901 24.179,21.62 23.776,21.946 c -5.621,4.55 -11.778,8.403 -18.301,11.45 l -0.278,0.131 -63.352,-59.805 0.621,-0.276 c 4.361,-1.935 8.99,-2.917 13.759,-2.917 8.526,0 16.68,3.174 22.96,8.938"/>
      <path id="path72" transform="translate(280.6531,75.6602)" style="fill:#435851 icc-color(sRGB IEC61966-2 0.1, 0.26298523, 0.34498596, 0.31799316);fill-opacity:1;fill-rule:nonzero;stroke:none" d="m 0,0 c -5.61,6.112 -8.7,14.05 -8.7,22.351 0,4.416 0.864,8.707 2.569,12.767 L 16.505,11.137 51.77,-26.304 C 49.02,-32.628 45.526,-38.622 41.379,-44.131 L 19.869,-21.19 0,0 Z M 19.869,-21.427 19.84,-64.505 C 13.676,-68.628 7.017,-71.953 0.034,-74.393 l 0.195,60.801 0.018,0.868 19.622,-8.703 z M -0.274,-75.456 c 7.352,2.51 14.357,5.987 20.818,10.335 l 0.199,0.134 0.028,41.514 20.68,-22.057 0.324,0.425 c 4.394,5.763 8.076,12.06 10.942,18.716 l 0.117,0.272 L 17.163,11.757 -6.411,36.73 -6.687,36.11 c -1.935,-4.36 -2.917,-8.989 -2.917,-13.759 0,-8.528 3.174,-16.683 8.941,-22.966 l 17.205,-18.347 -17.17,7.615 -0.247,-64.313 0.601,0.204 z"/>
      <path id="path73" transform="translate(333.574,57.3667)" style="fill:#435851 icc-color(sRGB IEC61966-2 0.1, 0.26298523, 0.34498596, 0.31799316);fill-opacity:1;fill-rule:nonzero;stroke:none" d="M 0,0 63.137,-0.242 64.006,-0.261 55.302,-19.882 9.263,-19.82 C 5.355,-13.618 2.24,-6.954 0,0 m 55.875,-19.883 -10e-4,0 20.858,19.873 c 6.112,5.607 14.047,8.695 22.342,8.695 4.417,0 8.709,-0.864 12.77,-2.57 L 87.864,-16.523 48.927,-53.822 c -6.312,2.725 -12.306,6.2 -17.826,10.338 l 24.774,23.601 z m 32.611,2.705 24.971,23.574 -0.621,0.275 c -4.36,1.936 -8.99,2.917 -13.762,2.917 -8.523,0 -16.676,-3.172 -22.956,-8.935 L 57.554,-17.034 65.382,0.612 -1.235,0.908 -1.05,0.318 C 1.251,-7.001 4.509,-14.01 8.632,-20.514 l 0.134,-0.21 44.853,-0.059 -23.912,-22.78 0.423,-0.321 c 5.776,-4.384 12.073,-8.046 18.716,-10.887 l 0.275,-0.117 39.365,37.71 z"/>
      <path id="path74" transform="translate(372.1809,159.9771)" style="fill:#435851 icc-color(sRGB IEC61966-2 0.1, 0.26298523, 0.34498596, 0.31799316);fill-opacity:1;fill-rule:nonzero;stroke:none" d="m 0,0 c 6.215,3.729 12.873,6.674 19.803,8.759 l -0.219,-61.678 -0.018,-0.869 -19.62,8.707 L 0,0 Z m -23.418,-20.404 23.364,-24.914 0,10e-4 19.872,-21.193 c 5.607,-6.113 8.696,-14.049 8.696,-22.346 0,-4.418 -0.865,-8.71 -2.57,-12.769 l -22.635,23.979 -37.615,39.934 c 2.934,6.157 6.595,11.976 10.888,17.308 M 26.5,-102.619 c 1.936,4.36 2.917,8.991 2.917,13.763 0,8.525 -3.173,16.679 -8.935,22.959 L 3.275,-47.547 20.442,-55.165 20.711,9.969 20.13,9.799 C 12.834,7.659 5.832,4.578 -0.685,0.642 l -0.218,-0.131 -0.052,-43.547 -22.512,24.005 -0.326,-0.401 c -4.545,-5.577 -8.402,-11.692 -11.462,-18.172 l -0.132,-0.279 61.611,-65.356 0.276,0.62 z"/>
      <path id="path75" transform="translate(449.5359,131.6416)" style="fill:#435851 icc-color(sRGB IEC61966-2 0.1, 0.26298523, 0.34498596, 0.31799316);fill-opacity:1;fill-rule:nonzero;stroke:none" d="m 0,0 42.21,-0.054 c 3.94,-6.193 7.087,-12.856 9.359,-19.814 l -59.403,0.23 -0.87,0.02 L 0,0 Z m 5.37,32.448 c 6.196,-2.923 12.058,-6.58 17.433,-10.879 L 0.154,0.348 0.156,0.352 -21.429,-19.87 c -6.113,-5.609 -14.048,-8.697 -22.346,-8.697 -4.415,0 -8.706,0.864 -12.767,2.569 L 5.37,32.448 Z m -26.185,-52.981 18.339,17.18 -7.604,-17.138 62.889,-0.285 -0.188,0.591 c -2.334,7.326 -5.625,14.333 -9.783,20.827 L 42.706,0.85 2.067,0.901 24.179,21.62 23.775,21.946 c -5.621,4.551 -11.778,8.403 -18.3,11.45 l -0.279,0.131 -63.351,-59.805 0.621,-0.276 c 4.36,-1.935 8.99,-2.917 13.759,-2.917 8.526,0 16.68,3.174 22.96,8.938"/>
      <path id="path76" transform="translate(446.4177,75.6602)" style="fill:#435851 icc-color(sRGB IEC61966-2 0.1, 0.26298523, 0.34498596, 0.31799316);fill-opacity:1;fill-rule:nonzero;stroke:none" d="m 0,0 c -5.611,6.112 -8.701,14.05 -8.701,22.351 0,4.415 0.865,8.706 2.57,12.767 L 16.505,11.137 51.769,-26.304 C 49.021,-32.626 45.527,-38.62 41.379,-44.131 L 19.869,-21.19 0,0 Z m 19.869,-21.427 -0.03,-43.078 C 13.677,-68.628 7.018,-71.952 0.034,-74.393 l 0.195,60.801 0.018,0.868 19.622,-8.703 z M -0.274,-75.456 c 7.353,2.511 14.357,5.988 20.817,10.335 l 0.2,0.134 0.028,41.514 20.68,-22.057 0.324,0.425 c 4.395,5.765 8.077,12.062 10.942,18.716 l 0.117,0.272 L 17.163,11.757 -6.411,36.73 -6.687,36.11 c -1.936,-4.36 -2.917,-8.989 -2.917,-13.759 0,-8.528 3.174,-16.683 8.941,-22.966 l 17.205,-18.347 -17.171,7.615 -0.246,-64.313 0.601,0.204 z"/>
      <path id="path77" transform="translate(499.3381,57.3667)" style="fill:#435851 icc-color(sRGB IEC61966-2 0.1, 0.26298523, 0.34498596, 0.31799316);fill-opacity:1;fill-rule:nonzero;stroke:none" d="M 0,0 63.137,-0.242 64.006,-0.261 55.302,-19.882 9.264,-19.82 C 5.355,-13.618 2.241,-6.954 0,0 m 55.875,-19.883 -10e-4,0 20.858,19.873 c 6.113,5.607 14.048,8.695 22.343,8.695 4.416,0 8.709,-0.864 12.769,-2.57 L 87.864,-16.523 48.928,-53.822 c -6.313,2.725 -12.307,6.2 -17.827,10.338 l 24.774,23.601 z m 32.611,2.705 24.971,23.574 -0.62,0.275 c -4.361,1.936 -8.991,2.917 -13.762,2.917 -8.524,0 -16.677,-3.172 -22.957,-8.935 L 57.554,-17.034 65.382,0.612 -1.235,0.908 -1.05,0.318 c 2.302,-7.32 5.56,-14.329 9.683,-20.832 l 0.133,-0.21 44.853,-0.059 -23.912,-22.78 0.423,-0.321 c 5.776,-4.384 12.073,-8.046 18.717,-10.887 l 0.275,-0.117 39.364,37.71 z"/>
      <path id="path78" transform="translate(537.9451,159.9771)" style="fill:#435851 icc-color(sRGB IEC61966-2 0.1, 0.26298523, 0.34498596, 0.31799316);fill-opacity:1;fill-rule:nonzero;stroke:none" d="M 0,0 C 6.216,3.729 12.873,6.674 19.803,8.759 L 19.584,-52.919 19.566,-53.788 -0.053,-45.081 0,0 Z m -23.417,-20.404 22.983,-24.508 0,0 20.253,-21.599 c 5.607,-6.113 8.695,-14.048 8.695,-22.345 0,-4.418 -0.865,-8.71 -2.57,-12.769 l -22.635,23.979 -37.615,39.934 c 2.935,6.157 6.596,11.976 10.889,17.308 M 26.5,-102.619 c 1.936,4.36 2.917,8.991 2.917,13.763 0,8.525 -3.173,16.679 -8.935,22.959 l -17.206,18.35 17.165,-7.618 0.27,65.134 -0.581,-0.17 C 12.835,7.659 5.833,4.579 -0.685,0.642 l -0.218,-0.131 -0.052,-43.547 -22.511,24.005 -0.326,-0.401 c -4.545,-5.577 -8.402,-11.691 -11.463,-18.172 l -0.132,-0.279 61.611,-65.356 0.276,0.62 z"/>
      <path id="path79" transform="translate(615.3005,131.6416)" style="fill:#435851 icc-color(sRGB IEC61966-2 0.1, 0.26298523, 0.34498596, 0.31799316);fill-opacity:1;fill-rule:nonzero;stroke:none" d="m 0,0 42.21,-0.054 c 3.94,-6.193 7.087,-12.856 9.359,-19.814 l -59.404,0.23 -0.869,0.02 L 0,0 Z m 5.37,32.448 c 6.196,-2.923 12.058,-6.58 17.433,-10.879 L 0.155,0.349 0.156,0.352 -21.429,-19.869 c -6.112,-5.609 -14.048,-8.698 -22.346,-8.698 -4.415,0 -8.706,0.864 -12.767,2.569 L 5.37,32.448 Z m -26.186,-52.981 18.34,17.18 -7.604,-17.138 62.889,-0.285 -0.188,0.591 c -2.334,7.326 -5.625,14.333 -9.783,20.827 L 42.706,0.85 2.066,0.901 24.179,21.62 23.775,21.946 c -5.621,4.551 -11.778,8.403 -18.3,11.45 l -0.279,0.131 -63.351,-59.805 0.62,-0.276 c 4.361,-1.935 8.991,-2.917 13.76,-2.917 8.526,0 16.68,3.174 22.959,8.938"/>
      <path id="path80" transform="translate(612.1819,75.6602)" style="fill:#435851 icc-color(sRGB IEC61966-2 0.1, 0.26298523, 0.34498596, 0.31799316);fill-opacity:1;fill-rule:nonzero;stroke:none" d="m 0,0 c -5.61,6.112 -8.7,14.05 -8.7,22.351 0,4.416 0.864,8.707 2.569,12.767 L 16.505,11.137 51.77,-26.304 C 49.02,-32.628 45.526,-38.622 41.379,-44.131 L 19.869,-21.19 0,0 Z M 19.869,-21.427 19.84,-64.505 C 13.676,-68.628 7.017,-71.953 0.034,-74.393 l 0.195,60.801 0.018,0.868 19.622,-8.703 z M -0.274,-75.456 c 7.352,2.51 14.357,5.987 20.818,10.335 l 0.199,0.134 0.028,41.514 20.68,-22.057 0.324,0.425 c 4.394,5.763 8.076,12.06 10.942,18.716 l 0.117,0.272 L 17.163,11.757 -6.411,36.73 -6.687,36.11 c -1.935,-4.36 -2.917,-8.989 -2.917,-13.759 0,-8.528 3.174,-16.683 8.941,-22.966 l 17.205,-18.347 -17.17,7.615 -0.247,-64.313 0.601,0.204 z"/>
      <path id="path81" transform="translate(182.5,8.5945)" style="fill:#435851 icc-color(sRGB IEC61966-2 0.1, 0.26298523, 0.34498596, 0.31799316);fill-opacity:1;fill-rule:nonzero;stroke:none" d="m 0,0 c 0,-2.95 0.68,-5.81 1.96,-8.4 l -1,0 c -1.22,2.61 -1.86,5.46 -1.86,8.4 0,2.8 0.57,5.51 1.71,8.06 l 3.87,8.73 -9.96,-9.33 c -3.68,-3.38 -8.46,-5.24 -13.45,-5.24 -2.8,0 -5.51,0.58 -8.06,1.71 l -8.74,3.88 9.34,-9.96 c 1.69,-1.85 3.01,-3.97 3.89,-6.25 l -0.98,0 c -0.83,2.05 -2.04,3.96 -3.57,5.64 l -12.39,13.2 12.82,-5.68 c 2.43,-1.09 5.02,-1.63 7.69,-1.63 4.76,0 9.32,1.77 12.84,4.99 L 7.31,20.49 1.63,7.69 C 0.55,5.26 0,2.67 0,0"/>
      <path id="path82" transform="translate(348.2599,8.5945)" style="fill:#435851 icc-color(sRGB IEC61966-2 0.1, 0.26298523, 0.34498596, 0.31799316);fill-opacity:1;fill-rule:nonzero;stroke:none" d="m 0,0 c 0,-2.95 0.68,-5.81 1.96,-8.4 l -1,0 c -1.22,2.61 -1.86,5.46 -1.86,8.4 0,2.8 0.58,5.51 1.71,8.06 l 3.87,8.73 -9.95,-9.33 c -3.69,-3.38 -8.46,-5.24 -13.46,-5.24 -2.8,0 -5.51,0.58 -8.05,1.71 l -8.75,3.88 9.34,-9.96 c 1.69,-1.85 3.01,-3.97 3.9,-6.25 l -0.99,0 c -0.83,2.05 -2.04,3.96 -3.57,5.64 l -12.39,13.2 12.82,-5.68 c 2.43,-1.09 5.02,-1.63 7.69,-1.63 4.77,0 9.33,1.77 12.84,4.99 L 7.31,20.49 1.64,7.69 C 0.55,5.26 0,2.67 0,0"/>
      <path id="path83" transform="translate(514.03,8.5945)" style="fill:#435851 icc-color(sRGB IEC61966-2 0.1, 0.26298523, 0.34498596, 0.31799316);fill-opacity:1;fill-rule:nonzero;stroke:none" d="m 0,0 c 0,-2.95 0.68,-5.81 1.96,-8.4 l -1.01,0 c -1.22,2.61 -1.86,5.46 -1.86,8.4 0,2.8 0.58,5.51 1.72,8.06 l 3.87,8.73 -9.96,-9.33 c -3.68,-3.38 -8.46,-5.24 -13.45,-5.24 -2.8,0 -5.51,0.58 -8.06,1.71 l -8.75,3.88 9.35,-9.96 c 1.69,-1.85 3,-3.97 3.89,-6.25 l -0.98,0 c -0.83,2.05 -2.04,3.96 -3.57,5.64 l -12.39,13.2 12.82,-5.68 c 2.43,-1.09 5.02,-1.63 7.69,-1.63 4.76,0 9.32,1.77 12.84,4.99 L 7.31,20.49 1.63,7.69 C 0.55,5.26 0,2.67 0,0"/>
      <path id="path84" transform="translate(12.78,8.5945)" style="fill:#435851 icc-color(sRGB IEC61966-2 0.1, 0.26298523, 0.34498596, 0.31799316);fill-opacity:1;fill-rule:nonzero;stroke:none" d="m 0,0 c 0,-2.95 0.68,-5.81 1.96,-8.4 l -1,0 c -1.22,2.61 -1.86,5.46 -1.86,8.4 0,2.8 0.58,5.51 1.71,8.06 L 4.68,16.79 -5.27,7.46 C -7.35,5.55 -9.75,4.14 -12.42,3.25 l -0.28,0.86 c 2.54,0.84 4.83,2.2 6.81,4.01 L 7.31,20.49 1.64,7.69 C 0.55,5.26 0,2.67 0,0"/>
      <path id="path85" transform="translate(653.0099,12.5245)" style="fill:#435851 icc-color(sRGB IEC61966-2 0.1, 0.26298523, 0.34498596, 0.31799316);fill-opacity:1;fill-rule:nonzero;stroke:none" d="m 0,0 -8.75,3.88 9.34,-9.96 c 1.69,-1.85 3.01,-3.97 3.9,-6.25 l -0.99,0 c -0.83,2.05 -2.04,3.96 -3.57,5.64 L -12.46,6.51 0.36,0.83 C 4.65,-1.09 9.59,-1.32 14.08,0.18 l 0.28,-0.86 C 12.32,-1.36 10.2,-1.71 8.05,-1.71 5.25,-1.71 2.54,-1.13 0,0"/>
      <path id="path86" transform="translate(199.8799,674.0646)" style="fill:#435851 icc-color(sRGB IEC61966-2 0.1, 0.26298523, 0.34498596, 0.31799316);fill-opacity:1;fill-rule:nonzero;stroke:none" d="m 0,0 -12.81,5.69 c -2.44,1.08 -5.03,1.63 -7.7,1.63 -4.77,0 -9.33,-1.78 -12.83,-5 l -13.37,-12.73 5.84,13.17 c 1.08,2.43 1.63,5.02 1.63,7.69 0,2.5 -0.49,4.94 -1.42,7.2 l 0.98,0 c 0.88,-2.27 1.34,-4.72 1.34,-7.2 0,-2.8 -0.57,-5.51 -1.7,-8.06 l -4,-9 10.08,9.59 c 3.68,3.38 8.45,5.24 13.45,5.24 2.79,0 5.51,-0.57 8.06,-1.7 l 8.74,-3.88 -9.33,9.96 c -1.39,1.52 -2.53,3.22 -3.38,5.05 l 1,0 c 0.79,-1.61 1.8,-3.1 3.04,-4.44 L 0,0 Z"/>
      <path id="path87" transform="translate(365.65,674.0646)" style="fill:#435851 icc-color(sRGB IEC61966-2 0.1, 0.26298523, 0.34498596, 0.31799316);fill-opacity:1;fill-rule:nonzero;stroke:none" d="m 0,0 -12.82,5.69 c -2.44,1.08 -5.03,1.63 -7.7,1.63 -4.77,0 -9.32,-1.78 -12.83,-5 l -13.37,-12.73 5.85,13.17 c 1.08,2.43 1.62,5.02 1.62,7.69 0,2.5 -0.49,4.94 -1.42,7.2 l 0.99,0 c 0.87,-2.27 1.34,-4.72 1.34,-7.2 0,-2.8 -0.58,-5.51 -1.71,-8.06 l -3.99,-9 10.07,9.59 c 3.68,3.38 8.46,5.24 13.45,5.24 2.8,0 5.51,-0.57 8.07,-1.7 l 8.74,-3.88 -9.34,9.96 c -1.39,1.52 -2.53,3.22 -3.38,5.05 l 1,0 c 0.79,-1.61 1.81,-3.1 3.04,-4.44 L 0,0 Z"/>
      <path id="path88" transform="translate(531.41,674.0646)" style="fill:#435851 icc-color(sRGB IEC61966-2 0.1, 0.26298523, 0.34498596, 0.31799316);fill-opacity:1;fill-rule:nonzero;stroke:none" d="m 0,0 -12.82,5.69 c -2.43,1.08 -5.02,1.63 -7.69,1.63 -4.77,0 -9.33,-1.78 -12.84,-5 l -13.36,-12.73 5.84,13.17 c 1.08,2.43 1.63,5.02 1.63,7.69 0,2.5 -0.49,4.94 -1.42,7.2 l 0.98,0 c 0.87,-2.27 1.34,-4.72 1.34,-7.2 0,-2.8 -0.57,-5.51 -1.7,-8.06 l -4,-9 10.08,9.59 c 3.68,3.38 8.45,5.24 13.45,5.24 2.79,0 5.51,-0.57 8.06,-1.7 l 8.74,-3.88 -9.34,9.96 c -1.39,1.52 -2.53,3.22 -3.38,5.05 l 1.01,0 c 0.78,-1.61 1.81,-3.1 3.04,-4.44 L 0,0 Z"/>
      <path id="path89" transform="translate(30.17,674.0646)" style="fill:#435851 icc-color(sRGB IEC61966-2 0.1, 0.26298523, 0.34498596, 0.31799316);fill-opacity:1;fill-rule:nonzero;stroke:none" d="m 0,0 -12.82,5.69 c -2.44,1.08 -5.03,1.63 -7.7,1.63 -3.22,0 -6.4,-0.83 -9.21,-2.38 l -0.44,0.79 c 2.94,1.63 6.28,2.49 9.65,2.49 2.8,0 5.51,-0.57 8.07,-1.7 l 8.74,-3.88 -9.34,9.96 c -1.39,1.52 -2.53,3.22 -3.38,5.05 l 1,0 c 0.79,-1.61 1.81,-3.1 3.04,-4.44 L 0,0 Z"/>
      <path id="path90" transform="translate(667.45,679.0046)" style="fill:#435851 icc-color(sRGB IEC61966-2 0.1, 0.26298523, 0.34498596, 0.31799316);fill-opacity:1;fill-rule:nonzero;stroke:none" d="m 0,0 c -1.31,-0.73 -2.52,-1.61 -3.62,-2.61 l -13.37,-12.74 5.84,13.17 c 1.09,2.43 1.63,5.02 1.63,7.69 0,2.5 -0.49,4.94 -1.42,7.2 l 0.99,0 c 0.88,-2.27 1.34,-4.72 1.34,-7.2 0,-2.8 -0.58,-5.51 -1.71,-8.06 l -3.99,-9 10.07,9.59 c 1.16,1.07 2.43,1.99 3.8,2.75 L 0,0 Z"/>
    </pattern>
  </defs>
  
    
  
  <g id="layer-MC0">
    <path transform="matrix(1.3333333,0,0,-1.3333333,0,793.70133)" style="fill:url(#pattern90);fill-opacity:1;fill-rule:nonzero;stroke:none" d="M 0,0 H 841.89 V 595.17 H 0 Z" id="path1"/>
  </g>
</svg>